<?xml version="1.0" encoding="UTF-8"?>
<svg version="1.1" xmlns="http://www.w3.org/2000/svg" width="883" height="883">
<path d="M0 0 C19.96327982 21.11702454 29.01545923 46.29517958 29.16796875 74.984375 C29.17441406 75.65543274 29.18085938 76.32649048 29.1875 77.0178833 C29.35353112 105.30111234 19.07873709 130.54557803 0.73046875 151.796875 C-0.14158203 152.82167969 -0.14158203 152.82167969 -1.03125 153.8671875 C-15.20488388 169.21898238 -36.28540219 178.2238583 -55.26953125 185.796875 C-46.5357984 196.56012938 -46.5357984 196.56012938 -37.76953125 207.296875 C-21.69337175 226.93569988 -21.69337175 226.93569988 -14.83203125 235.734375 C-10.61863032 241.13296585 -6.31119108 246.44869685 -1.95703125 251.734375 C-1.38218994 252.43232178 -0.80734863 253.13026855 -0.21508789 253.84936523 C3.00700279 257.7479221 6.27624412 261.58790439 9.65307617 265.35375977 C10.73046875 266.796875 10.73046875 266.796875 10.73046875 268.796875 C3.22614084 268.92995056 -4.27822847 269.06045591 -11.7826519 269.18802643 C-15.27048751 269.24739085 -18.75830597 269.3075129 -22.24609375 269.36962891 C-30.29242568 269.51238404 -38.33868501 269.63480609 -46.38562012 269.73828125 C-50.19034894 269.79568043 -53.99372658 269.88065158 -57.79785156 269.96875 C-60.12433388 270.0061583 -62.45083093 270.04266464 -64.77734375 270.078125 C-65.82638885 270.10974731 -66.87543396 270.14136963 -67.95626831 270.1739502 C-75.66890731 270.25467849 -80.82811663 268.65308807 -86.7734375 263.71875 C-87.45277344 263.00203125 -88.13210937 262.2853125 -88.83203125 261.546875 C-89.58613281 260.75667969 -90.34023437 259.96648437 -91.1171875 259.15234375 C-93.60311182 256.43181314 -96.05594238 253.69024352 -98.45703125 250.89453125 C-100.52803466 248.49770188 -102.64556343 246.14687318 -104.76953125 243.796875 C-108.03221115 240.18147295 -111.25528075 236.5359794 -114.453125 232.86328125 C-117.25601365 229.67461868 -120.10909719 226.5315922 -122.9609375 223.38671875 C-125.26953125 220.796875 -125.26953125 220.796875 -126.47143555 218.94775391 C-128.53777182 215.9853426 -130.04916006 214.09208765 -133.64428711 213.22241211 C-136.77473943 213.05887482 -139.82565456 213.14492258 -142.95703125 213.296875 C-144.83615783 213.34532094 -146.71528783 213.39366289 -148.59446716 213.4400177 C-150.77665713 213.49903313 -152.95796444 213.57456721 -155.13964844 213.64990234 C-161.17408063 213.84175019 -167.20916192 213.8847685 -173.24609375 213.94140625 C-176.7037754 213.98127124 -180.16141443 214.02363567 -183.61904907 214.06738281 C-185.91960936 214.09527945 -188.22021208 214.11987976 -190.52084351 214.14111328 C-193.79813891 214.17474448 -197.07460982 214.22764061 -200.3515625 214.28515625 C-201.33391876 214.29158646 -202.31627502 214.29801666 -203.32839966 214.30464172 C-210.8455889 214.46469216 -216.61931705 216.19467564 -223.26953125 219.796875 C-223.26953125 220.456875 -223.26953125 221.116875 -223.26953125 221.796875 C-224.66429267 222.95350642 -226.06295716 224.10574018 -227.48046875 225.234375 C-230.14860418 227.56462428 -232.37153132 230.2300429 -234.65625 232.9296875 C-236.13794757 234.64458202 -237.57363861 236.29252946 -239.26953125 237.796875 C-239.92953125 237.796875 -240.58953125 237.796875 -241.26953125 237.796875 C-241.26953125 238.456875 -241.26953125 239.116875 -241.26953125 239.796875 C-241.92953125 239.796875 -242.58953125 239.796875 -243.26953125 239.796875 C-243.52863281 240.38339844 -243.78773438 240.96992187 -244.0546875 241.57421875 C-245.35478109 243.95284658 -246.75827963 245.48605893 -248.70703125 247.359375 C-249.30386719 247.93816406 -249.90070313 248.51695312 -250.515625 249.11328125 C-251.09441406 249.66886719 -251.67320312 250.22445313 -252.26953125 250.796875 C-252.79675781 251.36277344 -253.32398438 251.92867187 -253.8671875 252.51171875 C-255.26953125 253.796875 -255.26953125 253.796875 -257.26953125 253.796875 C-257.26953125 254.456875 -257.26953125 255.116875 -257.26953125 255.796875 C-257.92953125 255.796875 -258.58953125 255.796875 -259.26953125 255.796875 C-259.60984375 256.6321875 -259.60984375 256.6321875 -259.95703125 257.484375 C-261.262049 259.78369199 -262.73306119 261.41230479 -264.63671875 263.23046875 C-267.58278019 266.05671429 -270.41636369 268.99802928 -273.28125 271.90625 C-276.71396599 275.17036501 -279.43715648 275.14041017 -284.01171875 275.07421875 C-287.4597461 274.65067214 -289.01955762 273.38775372 -291.26953125 270.796875 C-296.99277066 259.35039618 -294.49038145 242.04474391 -294.5859375 229.53515625 C-294.60683723 227.21566482 -294.62806482 224.89617632 -294.64959717 222.57669067 C-294.71726469 215.08763532 -294.77511223 207.59851856 -294.83203125 200.109375 C-294.85205375 197.53939798 -294.87210387 194.96942117 -294.8921814 192.39944458 C-295.00218581 178.18510685 -295.10181223 163.97071974 -295.19475079 149.75626087 C-295.24765771 141.76223605 -295.3091789 133.76832563 -295.37695312 125.77441406 C-295.44947175 117.18222501 -295.50768212 108.59010809 -295.54434872 99.99768734 C-295.5626988 95.72915567 -295.58712209 91.46090976 -295.62869263 87.1925354 C-295.93708584 54.46221438 -295.93708584 54.46221438 -291.26953125 40.796875 C-290.89143311 39.62882324 -290.51333496 38.46077148 -290.1237793 37.25732422 C-285.2874282 22.93302022 -276.83600486 11.39536823 -266.26953125 0.796875 C-265.44453125 -0.05003906 -264.61953125 -0.89695312 -263.76953125 -1.76953125 C-245.70201477 -19.35712932 -222.54692833 -25.96573339 -197.89453125 -26.765625 C-196.75242187 -26.80880859 -195.6103125 -26.85199219 -194.43359375 -26.89648438 C-186.72768377 -27.15805352 -179.03432871 -27.21961005 -171.32421875 -27.19921875 C-160.16874456 -27.17152274 -149.01756794 -27.27730316 -137.86328125 -27.421875 C-137.00999615 -27.4329019 -136.15671104 -27.44392879 -135.27756882 -27.45528984 C-130.00372624 -27.52394453 -124.72991701 -27.59493871 -119.45611572 -27.66668701 C-112.32821673 -27.76336229 -105.20028071 -27.85725608 -98.07234192 -27.95094299 C-95.61246875 -27.98355712 -93.15260861 -28.01703848 -90.69274902 -28.05065918 C-57.17552443 -28.50299003 -25.23120402 -24.49294159 0 0 Z M-223.26953125 48.796875 C-231.59392214 59.53398569 -237.42703493 71.43656412 -237.39453125 85.234375 C-237.39710938 86.32621094 -237.3996875 87.41804688 -237.40234375 88.54296875 C-237.27312614 91.70880024 -236.86050442 94.68723045 -236.26953125 97.796875 C-235.60953125 97.796875 -234.94953125 97.796875 -234.26953125 97.796875 C-234.48351562 98.34214844 -234.6975 98.88742187 -234.91796875 99.44921875 C-235.81116625 105.41379316 -230.53097519 112.02941458 -227.21484375 116.67578125 C-222.07263184 123.10812105 -216.48513455 129.38025285 -210.26953125 134.796875 C-209.60953125 134.796875 -208.94953125 134.796875 -208.26953125 134.796875 C-207.93953125 135.786875 -207.60953125 136.776875 -207.26953125 137.796875 C-205.57799381 139.51139842 -205.57799381 139.51139842 -203.51953125 141.171875 C-200.26195065 143.89481451 -197.25725062 146.78617099 -194.26953125 149.796875 C-192.84711918 151.22496674 -191.42448911 152.65284135 -190.00170898 154.08056641 C-189.19414658 154.89135651 -188.38658417 155.70214661 -187.55455017 156.5375061 C-184.3807781 159.72287589 -181.20515683 162.9063975 -178.02891445 166.08930397 C-175.62252489 168.50092851 -173.21708889 170.91348912 -170.8137207 173.328125 C-168.029634 176.12517219 -165.24148847 178.91815352 -162.453125 181.7109375 C-161.59263046 182.57659332 -160.73213593 183.44224915 -159.8455658 184.33413696 C-159.04115555 185.13862274 -158.2367453 185.94310852 -157.40795898 186.77197266 C-156.3513633 187.83189926 -156.3513633 187.83189926 -155.27342224 188.91323853 C-151.79037316 192.50002544 -151.79037316 192.50002544 -147.26953125 193.796875 C-146.86734375 194.7559375 -146.86734375 194.7559375 -146.45703125 195.734375 C-145.38285373 198.12819186 -145.38285373 198.12819186 -142.26953125 198.796875 C-141.5845074 200.12087068 -140.92093914 201.4560208 -140.26953125 202.796875 C-138.94178837 204.2579254 -137.56321449 205.67395574 -136.14453125 207.046875 C-135.42007813 207.75328125 -134.695625 208.4596875 -133.94921875 209.1875 C-133.39492187 209.71859375 -132.840625 210.2496875 -132.26953125 210.796875 C-126.10702954 205.73732104 -120.4925772 200.17269137 -114.87207031 194.52978516 C-113.27649403 192.92886111 -111.67565785 191.33333816 -110.07421875 189.73828125 C-109.03483562 188.69823699 -107.99576292 187.65788239 -106.95703125 186.6171875 C-105.57064453 185.22910889 -105.57064453 185.22910889 -104.15625 183.81298828 C-102.06719896 181.6753812 -100.1083749 179.45993548 -98.16821289 177.18676758 C-93.67112727 172.00515507 -88.77823064 167.22562879 -83.89742851 162.41073799 C-82.16554873 160.7011895 -80.43792475 158.98744268 -78.71144104 157.27244568 C-73.80778566 152.40209652 -68.89992101 147.53605228 -63.98168945 142.68041992 C-60.95852745 139.69514119 -57.94292665 136.70239575 -54.93187141 133.70490837 C-53.79250859 132.57353299 -52.6503893 131.4449258 -51.50533867 130.31930733 C-38.01669094 117.05574012 -29.70716601 104.45253516 -28.95703125 85.046875 C-29.36100359 71.0425007 -32.81699631 56.34680637 -42.58203125 45.796875 C-54.90800751 34.94673625 -69.20507079 31.62680755 -85.23535156 32.61230469 C-89.83871346 33.02998851 -93.98277343 34.10274831 -98.26953125 35.796875 C-99.10613281 36.12558594 -99.94273437 36.45429688 -100.8046875 36.79296875 C-107.7456485 39.89333618 -112.8751504 44.52075208 -118.26953125 49.796875 C-118.92050781 50.42078125 -119.57148438 51.0446875 -120.2421875 51.6875 C-124.17170855 55.52202164 -127.7470596 59.58709181 -131.26953125 63.796875 C-135.68921106 63.39508593 -137.74825382 60.39373932 -140.45703125 57.234375 C-141.44377764 56.13156961 -142.43338389 55.03131668 -143.42578125 53.93359375 C-143.91175781 53.39524902 -144.39773437 52.8569043 -144.8984375 52.30224609 C-155.66350994 40.48290195 -169.53454877 33.4711701 -185.515625 32.625 C-200.99529763 32.26708849 -212.70787571 37.1827468 -223.26953125 48.796875 Z " fill="#D7D7D7" transform="translate(335.26953125,292.203125)"/>
<path d="M0 0 C27.33696977 -0.97632035 55.57607431 7.50031193 76 26 C95.27141426 44.70753467 106.84468542 70.02802808 107.38186646 96.81842041 C107.41018992 98.9414887 107.42621311 101.06427687 107.4375 103.1875 C107.44394531 103.85855774 107.45039063 104.52961548 107.45703125 105.2210083 C107.62306237 133.50423734 97.34826834 158.74870303 79 180 C78.12794922 181.02480469 78.12794922 181.02480469 77.23828125 182.0703125 C63.06464737 197.42210738 41.98412906 206.4269833 23 214 C31.73373285 224.76325438 31.73373285 224.76325438 40.5 235.5 C56.5761595 255.13882488 56.5761595 255.13882488 63.4375 263.9375 C67.65090093 269.33609085 71.95834017 274.65182185 76.3125 279.9375 C76.88734131 280.63544678 77.46218262 281.33339355 78.05444336 282.05249023 C81.27653404 285.9510471 84.54577537 289.79102939 87.92260742 293.55688477 C89 295 89 295 89 297 C81.49567209 297.13307556 73.99130278 297.26358091 66.48687935 297.39115143 C62.99904374 297.45051585 59.51122528 297.5106379 56.0234375 297.57275391 C47.97710557 297.71550904 39.93084624 297.83793109 31.88391113 297.94140625 C28.07918231 297.99880543 24.27580467 298.08377658 20.47167969 298.171875 C18.14519737 298.2092833 15.81870032 298.24578964 13.4921875 298.28125 C12.4431424 298.31287231 11.39409729 298.34449463 10.31326294 298.3770752 C2.60062394 298.45780349 -2.55858538 296.85621307 -8.50390625 291.921875 C-9.18324219 291.20515625 -9.86257812 290.4884375 -10.5625 289.75 C-11.31660156 288.95980469 -12.07070312 288.16960937 -12.84765625 287.35546875 C-15.33358057 284.63493814 -17.78641113 281.89336852 -20.1875 279.09765625 C-22.25850341 276.70082688 -24.37603218 274.34999818 -26.5 272 C-29.76335689 268.38384777 -32.98874156 264.73917444 -36.18359375 261.0625 C-38.28079409 258.68116284 -40.42285703 256.3432484 -42.5625 254 C-45.31804042 250.92778513 -48.04438347 247.84628003 -50.625 244.625 C-51.11226562 244.01914062 -51.59953125 243.41328125 -52.1015625 242.7890625 C-53 241 -53 241 -52.71694946 239.0692749 C-51.50082422 235.55926817 -48.63854418 233.2975403 -46.0234375 230.765625 C-45.4199649 230.16876892 -44.81649231 229.57191284 -44.19473267 228.95697021 C-42.26178974 227.04741783 -40.31901799 225.14827073 -38.375 223.25 C-36.45408584 221.36439854 -34.53540619 219.47660412 -32.61953735 217.58587646 C-31.42848245 216.41149826 -30.23434321 215.2402361 -29.03646851 214.07281494 C-26.16904573 211.25564506 -23.4408203 208.38877484 -20.83081055 205.33081055 C-16.36352951 200.16237532 -11.48757603 195.40791568 -6.62789726 190.61386299 C-4.89601748 188.9043145 -3.1683935 187.19056768 -1.44190979 185.47557068 C3.46174559 180.60522152 8.36961024 175.73917728 13.2878418 170.88354492 C16.3110038 167.89826619 19.3266046 164.90552075 22.33765984 161.90803337 C23.47702266 160.77665799 24.61914195 159.6480508 25.76419258 158.52243233 C39.25284031 145.25886512 47.56236524 132.65566016 48.3125 113.25 C47.88611095 98.46851277 44.20221472 83.48923628 33.25 72.9375 C23.66380806 65.09954975 12.44532437 61.59643735 0.1875 61.6875 C-0.60076172 61.69241455 -1.38902344 61.6973291 -2.20117188 61.70239258 C-8.50031198 61.82834954 -14.10749189 62.6712808 -20 65 C-20.83660156 65.32871094 -21.67320312 65.65742188 -22.53515625 65.99609375 C-35.09223943 71.60505363 -43.93905815 83.01592144 -53 93 C-56.20170807 92.42775971 -57.74096751 91.60863108 -59.91015625 89.19921875 C-60.42513672 88.63396484 -60.94011719 88.06871094 -61.47070312 87.48632812 C-62.25864258 86.5959082 -62.25864258 86.5959082 -63.0625 85.6875 C-63.59166016 85.10548828 -64.12082031 84.52347656 -64.66601562 83.92382812 C-65.68472224 82.79519834 -66.6922027 81.65630811 -67.68676758 80.50634766 C-68.73581534 79.30303391 -69.83665388 78.14493974 -70.953125 77.00390625 C-73.08402065 72.92499033 -70.76859149 68.38762493 -69.50390625 64.2265625 C-61.19296481 39.65359337 -43.95362392 19.87337444 -21 8 C-14.1151769 4.83222893 -7.59206233 2.4465919 0 2 C0 1.34 0 0.68 0 0 Z " fill="#EAEAEA" transform="translate(257,264)"/>
<path d="M0 0 C0.90169922 -0.00386719 1.80339844 -0.00773437 2.73242188 -0.01171875 C3.59802734 -0.01042969 4.46363281 -0.00914062 5.35546875 -0.0078125 C6.13946045 -0.00668457 6.92345215 -0.00555664 7.73120117 -0.00439453 C9.8125 0.125 9.8125 0.125 12.8125 1.125 C12.8125 15.975 12.8125 30.825 12.8125 46.125 C13.1425 46.125 13.4725 46.125 13.8125 46.125 C13.8125 57.125 13.8125 68.125 13.8125 79.125 C13.83570313 80.07246094 13.85890625 81.01992188 13.8828125 81.99609375 C13.90085937 83.17300781 13.91890625 84.34992188 13.9375 85.5625 C13.96070313 86.73683594 13.98390625 87.91117187 14.0078125 89.12109375 C13.8125 92.125 13.8125 92.125 11.8125 94.125 C5.5425 94.125 -0.7275 94.125 -7.1875 94.125 C-7.5175 74.325 -7.8475 54.525 -8.1875 34.125 C-9.47527344 38.37246094 -10.76304687 42.61992187 -12.08984375 46.99609375 C-13.11599989 50.37424541 -14.14279356 53.75220181 -15.17002106 57.13002777 C-16.2555502 60.70019813 -17.33994279 64.27070482 -18.42163086 67.84204102 C-19.46276711 71.27933463 -20.50697231 74.71568183 -21.55334663 78.15138435 C-21.95276776 79.46481898 -22.35106645 80.77859547 -22.74824333 82.09271049 C-23.30310027 83.92785114 -23.8622574 85.76168998 -24.42163086 87.59545898 C-24.89795204 89.16432106 -24.89795204 89.16432106 -25.38389587 90.76487732 C-26.1875 93.125 -26.1875 93.125 -27.1875 94.125 C-33.4575 94.125 -39.7275 94.125 -46.1875 94.125 C-52.4575 73.995 -58.7275 53.865 -65.1875 33.125 C-64.8575 34.775 -64.5275 36.425 -64.1875 38.125 C-63.85416667 39.79166667 -63.52083333 41.45833333 -63.1875 43.125 C-63.8475 43.125 -64.5075 43.125 -65.1875 43.125 C-65.04691524 45.58373768 -64.90027001 48.04185175 -64.75 50.5 C-64.71068359 51.19867188 -64.67136719 51.89734375 -64.63085938 52.6171875 C-64.44469866 56.49860492 -64.44469866 56.49860492 -63.1875 60.125 C-63.5175 60.455 -63.8475 60.785 -64.1875 61.125 C-63.8575 61.125 -63.5275 61.125 -63.1875 61.125 C-63.09863816 64.32402639 -63.27691469 67.05177456 -64.1875 70.125 C-63.8575 70.125 -63.5275 70.125 -63.1875 70.125 C-63.07148996 73.72889664 -63.00031592 77.33231467 -62.9375 80.9375 C-62.90398437 81.96166016 -62.87046875 82.98582031 -62.8359375 84.04101562 C-62.82304687 85.02392578 -62.81015625 86.00683594 -62.796875 87.01953125 C-62.77592773 87.92550049 -62.75498047 88.83146973 -62.73339844 89.76489258 C-63.1875 92.125 -63.1875 92.125 -65.01855469 93.92358398 C-68.00312505 95.57678871 -70.2974332 95.45275383 -73.6875 95.375 C-75.37359375 95.35179687 -75.37359375 95.35179687 -77.09375 95.328125 C-79.64704155 95.16048465 -81.74065624 94.78498651 -84.1875 94.125 C-84.19780746 93.03141174 -84.20811493 91.93782349 -84.21873474 90.81109619 C-84.31644107 80.51098515 -84.41917261 70.21093489 -84.52683926 59.910923 C-84.58203132 54.61544112 -84.63544545 49.31995369 -84.68481445 44.02441406 C-84.73251273 38.91506896 -84.78485762 33.80579077 -84.84044075 28.69652557 C-84.86083952 26.74608778 -84.87955668 24.79563166 -84.89657402 22.84516144 C-84.92067281 20.11578237 -84.95072 17.38652934 -84.98217773 14.65722656 C-84.9879332 13.84874268 -84.99368866 13.04025879 -84.99961853 12.20727539 C-85.04585426 8.6839415 -85.24370302 5.51638032 -86.1875 2.125 C-83.42132437 0.74191219 -81.17732 1.01289804 -78.0859375 1.02734375 C-76.87421875 1.03056641 -75.6625 1.03378906 -74.4140625 1.03710938 C-73.14304687 1.04548828 -71.87203125 1.05386719 -70.5625 1.0625 C-69.28375 1.06701172 -68.005 1.07152344 -66.6875 1.07617188 C-63.52078708 1.08798797 -60.35416644 1.10446185 -57.1875 1.125 C-56.84614014 1.94484375 -56.50478027 2.7646875 -56.15307617 3.609375 C-55.70424072 4.68703125 -55.25540527 5.7646875 -54.79296875 6.875 C-54.34848389 7.94234375 -53.90399902 9.0096875 -53.44604492 10.109375 C-50.92859056 16.30745856 -50.92859056 16.30745856 -48 22.3125 C-47.1875 24.125 -47.1875 24.125 -47.1875 28.125 C-45.80453781 31.6811885 -44.24642841 35.01556153 -42.4375 38.375 C-41.1875 41.125 -41.1875 41.125 -42.1875 44.125 C-41.94673729 47.72772618 -41.94673729 47.72772618 -41.1875 51.125 C-40.1975 51.62 -40.1975 51.62 -39.1875 52.125 C-38.50810826 54.12071323 -37.84188441 56.12094773 -37.1875 58.125 C-36.5275 58.785 -35.8675 59.445 -35.1875 60.125 C-35.8475 60.125 -36.5075 60.125 -37.1875 60.125 C-36.8575 61.115 -36.5275 62.105 -36.1875 63.125 C-33.37033461 56.35942523 -30.95294385 49.55552214 -28.8046875 42.55078125 C-28.50434601 41.58271042 -28.20400452 40.61463959 -27.89456177 39.61723328 C-26.94671065 36.55849201 -26.00460594 33.49801501 -25.0625 30.4375 C-24.4235355 28.37423793 -23.78421554 26.3110859 -23.14453125 24.24804688 C-19.56527407 12.71651248 -19.56527407 12.71651248 -16.1875 1.125 C-10.76747933 -0.00379769 -5.5076531 -0.02392898 0 0 Z M-45.1875 36.125 C-44.1875 38.125 -44.1875 38.125 -44.1875 38.125 Z M-44.1875 39.125 C-43.1875 41.125 -43.1875 41.125 -43.1875 41.125 Z M11.8125 49.125 C12.8125 51.125 12.8125 51.125 12.8125 51.125 Z M11.8125 59.125 C11.8125 61.765 11.8125 64.405 11.8125 67.125 C12.1425 67.125 12.4725 67.125 12.8125 67.125 C12.8125 64.485 12.8125 61.845 12.8125 59.125 C12.4825 59.125 12.1525 59.125 11.8125 59.125 Z " fill="#D7D7D7" transform="translate(496.1875,320.875)"/>
<path d="M0 0 C5.62347989 2.96510758 5.62347989 2.96510758 6.68359375 5.87890625 C7.29006695 9.94452291 6.51284306 13.20477393 5 17 C-0.56127124 24.28696873 -7.49664353 30.62470306 -13.99740982 37.07257462 C-15.61558528 38.67772075 -17.23038268 40.28620271 -18.8444519 41.89547729 C-22.26845413 45.30818461 -25.69641562 48.716897 -29.125 52.125 C-33.11162502 56.08786349 -37.09652174 60.05243492 -41.07720566 64.02126694 C-42.65422524 65.59189185 -44.23426497 67.15943195 -45.81448364 68.72683716 C-50.59271425 73.48175715 -55.25722522 78.26440067 -59.57321167 83.44821167 C-61.8052439 85.8757908 -63.8695082 87.02172131 -67 88 C-72.72987343 87.73256133 -75.36030057 86.40818334 -79.4375 82.4375 C-80.18241699 81.72352051 -80.18241699 81.72352051 -80.94238281 80.99511719 C-82.64733453 79.34841885 -84.32529938 77.67744528 -86 76 C-86.65307129 75.34854004 -87.30614258 74.69708008 -87.97900391 74.02587891 C-93.54626643 68.46648901 -93.54626643 68.46648901 -96.21655273 65.74780273 C-100.01820555 61.89308789 -103.93010425 58.25300574 -108.02734375 54.71484375 C-111.22561129 51.93456761 -114.3194582 49.06071664 -117.375 46.125 C-117.98988281 45.56425781 -118.60476562 45.00351562 -119.23828125 44.42578125 C-123.67109552 40.12876435 -125.55320133 36.20275097 -126 30 C-125.10541525 25.97436862 -123.34996546 23.40510341 -120 21 C-115.89988016 19.87131532 -112.51929158 19.28837072 -108.58984375 21.12890625 C-105.39472459 23.4372955 -102.73593205 26.04879608 -100 28.875 C-99.49210937 29.39191406 -98.98421875 29.90882813 -98.4609375 30.44140625 C-97.44973424 31.47075931 -96.44003443 32.5015916 -95.43188477 33.53393555 C-90.73387276 38.34409106 -85.86791523 42.92018927 -80.90429688 47.45117188 C-77.17032357 50.87582195 -73.56126482 54.39576366 -70 58 C-66.53891463 56.51556158 -64.31486374 54.55369767 -61.6875 51.875 C-60.96949219 51.15054688 -60.25148438 50.42609375 -59.51171875 49.6796875 C-57.58569388 47.62486159 -55.7442338 45.54826497 -53.91235352 43.41235352 C-49.75978917 38.6582014 -45.3497255 34.18790159 -40.890625 29.72265625 C-40.0419989 28.87070175 -39.1933728 28.01874725 -38.31903076 27.14097595 C-36.53870324 25.35561712 -34.75704684 23.57158252 -32.97412109 21.78881836 C-30.23897968 19.05147079 -27.51195766 16.3061994 -24.78515625 13.56054688 C-23.04996831 11.82242821 -21.314308 10.08478096 -19.578125 8.34765625 C-18.76249084 7.52483658 -17.94685669 6.70201691 -17.10650635 5.85426331 C-16.34851746 5.09935104 -15.59052856 4.34443878 -14.80957031 3.56665039 C-13.811987 2.56692955 -13.811987 2.56692955 -12.79425049 1.54701233 C-8.90674803 -1.804813 -4.68765018 -1.14980099 0 0 Z " fill="#E9E9E9" transform="translate(263,360)"/>
<path d="M0 0 C4.97634293 -0.10051656 9.95206737 -0.17222578 14.92919922 -0.21972656 C16.61452554 -0.23957276 18.29978561 -0.26665893 19.98486328 -0.30175781 C33.28581211 -0.57142523 48.96340865 -0.74978505 59.59765625 8.48828125 C61.44823302 10.4831927 62.73553472 12.59751597 64 15 C64.70125 15.70125 65.4025 16.4025 66.125 17.125 C68 19 68 19 69 22 C68.34 22 67.68 22 67 22 C67.09539062 22.75023437 67.19078125 23.50046875 67.2890625 24.2734375 C68.35390515 34.10465922 67.91049731 43.66688606 62 52 C59.51772276 54.58570545 56.9497838 56.95685971 54 59 C53.34 59 52.68 59 52 59 C51.34 60.32 50.68 61.64 50 63 C49.67 62.34 49.34 61.68 49 61 C48.62834717 61.48895752 48.25669434 61.97791504 47.8737793 62.48168945 C45.22857684 64.62507891 43.39113178 64.34230925 40.01953125 64.29296875 C38.97128174 64.28547607 37.92303223 64.2779834 36.84301758 64.27026367 C34.84791138 64.22929565 34.84791138 64.22929565 32.8125 64.1875 C28.584375 64.125625 24.35625 64.06375 20 64 C20.33 75.22 20.66 86.44 21 98 C14.4 98.33 7.8 98.66 1 99 C-0.71350991 95.57298019 -0.12858983 91.63900197 -0.11352539 87.86865234 C-0.11367142 86.92226395 -0.11381744 85.97587555 -0.1139679 85.00080872 C-0.11326942 81.86249525 -0.10548002 78.72424063 -0.09765625 75.5859375 C-0.09579184 73.41403231 -0.09436805 71.24212671 -0.09336853 69.07022095 C-0.08954516 63.34585413 -0.07971639 57.62151258 -0.06866455 51.89715576 C-0.05844657 46.05904482 -0.05387008 40.2209298 -0.04882812 34.3828125 C-0.03809398 22.92186389 -0.0210197 11.46093404 0 0 Z M20 17 C20 26.9 20 36.8 20 47 C32.13283294 47.84099892 32.13283294 47.84099892 42 44 C45.96166447 39.9340812 46.83439304 37.19429227 47.25 31.6875 C46.96002267 27.41033431 46.11194206 24.73109764 44 21 C38.93992096 16.61928342 34.97302969 16.48882128 28.625 16.75 C25.77875 16.8325 22.9325 16.915 20 17 Z " fill="#D7D7D7" transform="translate(414,577)"/>
<path d="M0 0 C0.99 0.99 0.99 0.99 2 2 C1.86328125 3.84765625 1.86328125 3.84765625 1.3125 6.0625 C1.1165625 6.85914063 0.920625 7.65578125 0.71875 8.4765625 C-0.21534598 11.75605163 -1.32266629 14.95711747 -2.51171875 18.15234375 C-3.23766295 20.07542056 -3.23766295 20.07542056 -2 22 C-2.66 22.33 -3.32 22.66 -4 23 C-4.8630637 25.10680846 -5.62807881 27.2540326 -6.34765625 29.4140625 C-6.56441513 30.06192719 -6.78117401 30.70979187 -7.00450134 31.37728882 C-7.46277365 32.75308678 -7.91730522 34.13013547 -8.3684082 35.50830078 C-9.05392929 37.5988628 -9.75349743 39.68431184 -10.45507812 41.76953125 C-10.89929556 43.10909076 -11.34268075 44.44892659 -11.78515625 45.7890625 C-12.38662476 47.60978271 -12.38662476 47.60978271 -13.00024414 49.46728516 C-14.09788766 53.02231175 -14.09788766 53.02231175 -14.51342773 56.88818359 C-14.75428101 58.42853271 -14.75428101 58.42853271 -15 60 C-15.99 60.495 -15.99 60.495 -17 61 C-18.08206249 63.3913975 -18.08206249 63.3913975 -19.05859375 66.3203125 C-19.44466797 67.4134375 -19.83074219 68.5065625 -20.22851562 69.6328125 C-20.82696289 71.36144531 -20.82696289 71.36144531 -21.4375 73.125 C-29.96736147 97.50398416 -29.96736147 97.50398416 -38 103 C-38.66 103 -39.32 103 -40 103 C-40.33 103.66 -40.66 104.32 -41 105 C-43.38255944 105.54080794 -45.64773138 105.94217321 -48.0625 106.25 C-49.0827124 106.38293457 -49.0827124 106.38293457 -50.12353516 106.51855469 C-55.33421326 107.10844277 -59.15165206 106.93933918 -64 105 C-65.69193359 101.61613282 -64.24788179 97.96815051 -63.5625 94.375 C-63.41490234 93.57320312 -63.26730469 92.77140625 -63.11523438 91.9453125 C-62.7493493 89.96245145 -62.37542879 87.98107623 -62 86 C-61.67 86.66 -61.34 87.32 -61 88 C-58.66487041 87.67949202 -56.33177975 87.34403308 -54 87 C-53.0925 86.9175 -52.185 86.835 -51.25 86.75 C-48.80461142 86.16736947 -48.80461142 86.16736947 -47.3125 83.8125 C-46.879375 82.884375 -46.44625 81.95625 -46 81 C-45.56300781 80.19304687 -45.12601563 79.38609375 -44.67578125 78.5546875 C-43.61051083 72.95124192 -45.86382231 68.52919552 -47.875 63.3125 C-48.64698824 61.24749516 -49.41539015 59.18114498 -50.1796875 57.11328125 C-50.52757324 56.20360596 -50.87545898 55.29393066 -51.23388672 54.35668945 C-52 52 -52 52 -52 49 C-52.66 48.67 -53.32 48.34 -54 48 C-54.33333333 46 -54.66666667 44 -55 42 C-55.66 41.67 -56.32 41.34 -57 41 C-57 40.34 -57 39.68 -57 39 C-57.66 38.34 -58.32 37.68 -59 37 C-59 36.01 -59 35.02 -59 34 C-59.54644013 32.31352488 -60.15790725 30.64751433 -60.8125 29 C-61.14894531 28.13375 -61.48539063 27.2675 -61.83203125 26.375 C-62.9710369 24.05889486 -64.06934032 22.68172075 -66 21 C-65.34 20.67 -64.68 20.34 -64 20 C-66.31 14.39 -68.62 8.78 -71 3 C-70 2 -70 2 -67.86694336 1.88647461 C-66.95050049 1.89171143 -66.03405762 1.89694824 -65.08984375 1.90234375 C-64.10048828 1.90556641 -63.11113281 1.90878906 -62.09179688 1.91210938 C-61.05087891 1.92048828 -60.00996094 1.92886719 -58.9375 1.9375 C-57.37032227 1.94426758 -57.37032227 1.94426758 -55.77148438 1.95117188 C-53.1809334 1.96300087 -50.59049441 1.97948311 -48 2 C-47.80664062 2.63808594 -47.61328125 3.27617187 -47.4140625 3.93359375 C-47.02347656 5.17302734 -47.02347656 5.17302734 -46.625 6.4375 C-46.36976563 7.26121094 -46.11453125 8.08492188 -45.8515625 8.93359375 C-45.19117773 11.17798016 -45.19117773 11.17798016 -43 12 C-42.33333333 14 -41.66666667 16 -41 18 C-41.33 18.66 -41.66 19.32 -42 20 C-41.34 20 -40.68 20 -40 20 C-39.89042969 20.60328125 -39.78085937 21.2065625 -39.66796875 21.828125 C-38.79059095 26.75396695 -38.79059095 26.75396695 -36.4375 31.0625 C-34.80322435 33.26521936 -34.70980714 34.37832958 -34.4375 37.0625 C-34.29990107 41.04785655 -34.29990107 41.04785655 -32 44 C-31.34 44 -30.68 44 -30 44 C-29.90203125 43.43837158 -29.8040625 42.87674316 -29.703125 42.2980957 C-28.3022812 34.77082459 -26.20621309 27.5135663 -24 20.1875 C-23.64421875 18.98673828 -23.2884375 17.78597656 -22.921875 16.54882812 C-21.44167739 11.59182307 -19.92394224 6.8098556 -18 2 C-12.06 2 -6.12 2 0 2 C0 1.34 0 0.68 0 0 Z " fill="#D7D7D7" transform="translate(841,470)"/>
<path d="M0 0 C10.51274697 -0.35386526 19.31279468 2.28425603 27.41015625 9.15625 C29.02550269 11.0919201 30.15584973 12.94867053 31.41015625 15.15625 C32.40015625 16.14625 32.40015625 16.14625 33.41015625 17.15625 C33.90515625 18.4246875 33.90515625 18.4246875 34.41015625 19.71875 C35.15885739 22.30466441 35.15885739 22.30466441 37.41015625 23.15625 C38.69587054 29.58482143 38.69587054 29.58482143 37.41015625 32.15625 C37.38979102 33.96875532 37.41846689 35.78194047 37.47265625 37.59375 C37.51450095 49.2823707 35.36228478 59.13612467 27.625 68.26171875 C18.97810731 76.58901377 7.16762495 78.57326694 -4.43359375 78.4296875 C-13.52619983 77.64196173 -21.14421696 73.51091029 -27.58984375 67.15625 C-29.68272563 64.63955953 -31.2001216 62.11554069 -32.58984375 59.15625 C-33.06744141 58.15271484 -33.06744141 58.15271484 -33.5546875 57.12890625 C-37.4825234 46.8296499 -37.46314765 31.49246683 -33.5625 21.1875 C-28.93624024 11.52623465 -23.25021048 5.60140946 -13.05859375 1.90234375 C-8.67212168 0.57668526 -4.54943339 0.27447562 0 0 Z M-7.58984375 19.15625 C-8.78216988 21.20628955 -8.78216988 21.20628955 -9.58984375 23.15625 C-10.57984375 23.48625 -11.56984375 23.81625 -12.58984375 24.15625 C-16.55474964 32.08606179 -16.87118924 41.64442952 -14.33984375 50.03125 C-12.37333004 55.12961889 -10.17209578 58.17525374 -5.46484375 61.09375 C-0.69151452 62.86963378 3.78777249 62.07080169 8.41015625 60.15625 C13.68601721 56.23798506 16.14715954 50.46062015 17.41015625 44.15625 C18.31415371 35.86243203 17.15216446 27.27717342 11.8984375 20.59765625 C8.74071203 17.5393867 5.18045407 16.41531797 0.84765625 15.78125 C-2.44652476 16.28804708 -4.7656673 17.39898465 -7.58984375 19.15625 Z M35.41015625 24.15625 C36.41015625 26.15625 36.41015625 26.15625 36.41015625 26.15625 Z " fill="#D7D7D7" transform="translate(524.58984375,471.84375)"/>
<path d="M0 0 C0.91644287 0.00523682 1.83288574 0.01047363 2.77709961 0.01586914 C3.76645508 0.0190918 4.75581055 0.02231445 5.77514648 0.02563477 C6.81606445 0.03401367 7.85698242 0.04239258 8.92944336 0.05102539 C10.49662109 0.05779297 10.49662109 0.05779297 12.09545898 0.06469727 C14.68600996 0.07652627 17.27644895 0.0930085 19.86694336 0.11352539 C20.19694336 1.43352539 20.52694336 2.75352539 20.86694336 4.11352539 C21.52694336 4.11352539 22.18694336 4.11352539 22.86694336 4.11352539 C22.53694336 5.43352539 22.20694336 6.75352539 21.86694336 8.11352539 C22.85694336 8.44352539 23.84694336 8.77352539 24.86694336 9.11352539 C25.01131836 10.14477539 25.15569336 11.17602539 25.30444336 12.23852539 C25.78354793 15.53902353 26.30569418 18.8262088 26.86694336 22.11352539 C27.52694336 22.11352539 28.18694336 22.11352539 28.86694336 22.11352539 C28.86694336 23.10352539 28.86694336 24.09352539 28.86694336 25.11352539 C30.30444527 26.80151366 30.30444527 26.80151366 31.86694336 28.11352539 C30.87694336 28.60852539 30.87694336 28.60852539 29.86694336 29.11352539 C29.86694336 29.77352539 29.86694336 30.43352539 29.86694336 31.11352539 C30.85694336 31.11352539 31.84694336 31.11352539 32.86694336 31.11352539 C32.53694336 32.10352539 32.20694336 33.09352539 31.86694336 34.11352539 C32.39355054 36.20246575 32.39355054 36.20246575 33.30444336 38.30102539 C33.5919043 39.01645508 33.87936523 39.73188477 34.17553711 40.46899414 C34.5177832 41.28303711 34.5177832 41.28303711 34.86694336 42.11352539 C37.42703401 36.54646435 39.13617508 30.95654126 40.74194336 25.05102539 C43.09854095 16.57396471 45.78784778 8.35463413 48.86694336 0.11352539 C55.46694336 0.11352539 62.06694336 0.11352539 68.86694336 0.11352539 C68.08569336 3.17342122 67.30444336 6.23331706 66.52319336 9.29321289 C65.79139918 11.95557608 65.79139918 11.95557608 65.86694336 14.11352539 C65.20694336 14.11352539 64.54694336 14.11352539 63.86694336 14.11352539 C64.09381836 14.62915039 64.32069336 15.14477539 64.55444336 15.67602539 C65.09922626 19.92533205 62.72858377 23.39024457 60.86694336 27.11352539 C60.72256836 27.73227539 60.57819336 28.35102539 60.42944336 28.98852539 C59.86694336 31.11352539 59.86694336 31.11352539 58.92944336 32.92602539 C57.76471358 35.32399846 57.034871 37.6762923 56.30444336 40.23852539 C54.96416558 44.91908095 54.96416558 44.91908095 53.86694336 47.11352539 C51.57861056 52.56313209 49.49631085 58.08236344 47.49975586 63.64477539 C46.88293945 65.35600586 46.88293945 65.35600586 46.25366211 67.10180664 C45.4134058 69.44047669 44.58005053 71.78163785 43.75366211 74.12524414 C40.08459243 84.24090353 36.10233318 95.06980105 25.90991211 100.07446289 C18.70141845 102.90590725 10.31801934 103.30814159 2.86694336 101.11352539 C2.74657672 95.33592655 3.03488516 89.8339255 3.86694336 84.11352539 C6.82620923 83.12710343 8.22125686 83.13671617 11.24194336 83.36352539 C14.83706489 83.38690829 15.69453538 83.23090955 18.80444336 81.11352539 C21.82406181 76.7213531 23.17101879 72.99543435 22.60522461 67.63305664 C22.15555545 65.37032142 21.7126441 63.26066561 20.86694336 61.11352539 C20.20694336 60.78352539 19.54694336 60.45352539 18.86694336 60.11352539 C18.19775391 58.29638672 18.19775391 58.29638672 17.56616211 55.88305664 C15.71206546 49.34089345 13.20467556 43.10866827 10.67944336 36.80102539 C9.69938399 34.3313216 8.72010398 31.86132399 7.74194336 29.39086914 C7.25854492 28.17125488 6.77514648 26.95164062 6.27709961 25.69506836 C4.20518246 20.43277187 2.18550335 15.15122027 0.17944336 9.86352539 C-0.32848755 8.52487427 -0.32848755 8.52487427 -0.84667969 7.15917969 C-1.61005752 5.14443559 -2.3717767 3.12906312 -3.13305664 1.11352539 C-2.13305664 0.11352539 -2.13305664 0.11352539 0 0 Z M61.86694336 19.11352539 C62.86694336 21.11352539 62.86694336 21.11352539 62.86694336 21.11352539 Z M60.86694336 22.11352539 C61.86694336 24.11352539 61.86694336 24.11352539 61.86694336 24.11352539 Z M34.86694336 43.11352539 C35.86694336 45.11352539 35.86694336 45.11352539 35.86694336 45.11352539 Z " fill="#D7D7D7" transform="translate(519.133056640625,344.886474609375)"/>
<path d="M0 0 C0.7115625 0.28875 1.423125 0.5775 2.15625 0.875 C4.4974151 2.30350752 5.13074993 3.64666055 6.25 6.125 C6.58515625 6.84945313 6.9203125 7.57390625 7.265625 8.3203125 C7.50796875 8.87460937 7.7503125 9.42890625 8 10 C8.66 10 9.32 10 10 10 C10.12375 10.598125 10.2475 11.19625 10.375 11.8125 C10.95475985 14.26231348 10.95475985 14.26231348 13 17 C13.13525391 19.36010742 13.13525391 19.36010742 12.9765625 22.10546875 C12.89921875 23.57983398 12.89921875 23.57983398 12.8203125 25.08398438 C12.75585938 26.10814453 12.69140625 27.13230469 12.625 28.1875 C12.53992188 29.74114258 12.53992188 29.74114258 12.453125 31.32617188 C12.31163334 33.88481271 12.16022134 36.44247484 12 39 C10.15269287 39.029729 10.15269287 39.029729 8.26806641 39.06005859 C3.70942339 39.13599182 -0.84889527 39.22472763 -5.40722656 39.31738281 C-7.38209644 39.35572349 -9.35703736 39.3905673 -11.33203125 39.421875 C-14.16692545 39.46741547 -17.0013283 39.52542715 -19.8359375 39.5859375 C-20.72243988 39.59748871 -21.60894226 39.60903992 -22.52230835 39.62094116 C-23.34300812 39.64081085 -24.16370789 39.66068054 -25.00927734 39.68115234 C-25.73319672 39.69447601 -26.45711609 39.70779968 -27.20297241 39.7215271 C-29.25153495 39.85787921 -29.25153495 39.85787921 -31 42 C-30.72382467 43.94074861 -30.72382467 43.94074861 -30 46 C-29.7525 47.0209375 -29.7525 47.0209375 -29.5 48.0625 C-29.07018312 49.7280404 -28.54394553 51.36816342 -28 53 C-18.45670681 57.77164659 -9.78022108 56.21635891 -0.05078125 53.0703125 C1.91373533 52.3810967 3.85805319 51.62966957 5.76953125 50.8046875 C6.87361328 50.40636719 6.87361328 50.40636719 8 50 C8.99 50.495 8.99 50.495 10 51 C9.67 51.99 9.34 52.98 9 54 C8.93259135 55.56118428 8.91485544 57.1250252 8.9375 58.6875 C8.94652344 59.49574219 8.95554687 60.30398438 8.96484375 61.13671875 C8.97644531 61.75160156 8.98804688 62.36648438 9 63 C9.33 63 9.66 63 10 63 C10 64.65 10 66.3 10 68 C8.08594633 68.67413211 6.16863974 69.3390332 4.25 70 C3.18265625 70.37125 2.1153125 70.7425 1.015625 71.125 C-2 72 -2 72 -6 72 C-6.33 72.66 -6.66 73.32 -7 74 C-33.04370416 73.71691626 -33.04370416 73.71691626 -42.9375 64.8125 C-51.40436598 55.33374028 -54.21543787 42.55946614 -54.15332031 30.14160156 C-53.41329767 19.80485217 -48.41378389 9.74919077 -40.8125 2.8125 C-29.33851822 -6.89768199 -13.13250499 -6.2907454 0 0 Z M-27 14 C-30.57886175 17.67827457 -31.2880946 19.86428381 -33 25 C-24.09 25 -15.18 25 -6 25 C-7.86617773 16.58288602 -7.86617773 16.58288602 -14 12 C-19.36293703 10.46773228 -22.36533849 10.91022566 -27 14 Z M-33 40 C-32 42 -32 42 -32 42 Z " fill="#D7D7D7" transform="translate(693,475)"/>
<path d="M0 0 C0 0.66 0 1.32 0 2 C0.556875 2.20625 1.11375 2.4125 1.6875 2.625 C4.97012371 4.57683032 6.70673246 6.94230994 9 10 C9 10.66 9 11.32 9 12 C9.66 12.33 10.32 12.66 11 13 C13.59941569 21.77159657 14.56239117 29.9456608 13 39 C7.90807713 40.03485633 3.05052659 40.13009967 -2.1171875 40.09765625 C-2.97434357 40.0962413 -3.83149963 40.09482635 -4.71463013 40.09336853 C-7.4347899 40.08780022 -10.15486538 40.07525364 -12.875 40.0625 C-14.72656131 40.0574809 -16.57812391 40.05291871 -18.4296875 40.04882812 C-22.95315715 40.03784117 -27.47656432 40.02059852 -32 40 C-31.38758071 41.60649391 -30.76763177 43.21011871 -30.14453125 44.8125 C-29.80010986 45.70582031 -29.45568848 46.59914063 -29.10083008 47.51953125 C-27.0732767 52.08815896 -24.48298337 54.32029929 -20 56.375 C-11.05280481 58.40667751 -1.87550626 56.37528126 6 52 C6 51.34 6 50.68 6 50 C6.99 50.33 7.98 50.66 9 51 C9.13487595 53.77245014 9.23400807 56.53837088 9.3125 59.3125 C9.35439453 60.09818359 9.39628906 60.88386719 9.43945312 61.69335938 C9.48638328 63.89907663 9.47264283 65.84372833 9 68 C6.640625 69.96875 6.640625 69.96875 4 71 C2.7315625 71.5878125 2.7315625 71.5878125 1.4375 72.1875 C-1 73 -1 73 -5 73 C-5 73.66 -5 74.32 -5 75 C-26.96517397 74.62911788 -26.96517397 74.62911788 -35 70 C-36.0725 69.401875 -37.145 68.80375 -38.25 68.1875 C-45.96724839 62.04877969 -49.88998549 54.60195052 -52 45 C-53.12284905 30.78745311 -52.27598001 18.39378366 -43 7 C-31.73194214 -6.0174367 -15.02187476 -5.85598507 0 0 Z M-28.25 17.3125 C-30.46532748 20.3223218 -30.46532748 20.3223218 -31 26 C-22.42 26 -13.84 26 -5 26 C-5.86869872 18.88814311 -5.86869872 18.88814311 -10 14 C-16.49009384 9.30027687 -23.23014301 12.15320253 -28.25 17.3125 Z " fill="#D7D7D7" transform="translate(399,477)"/>
<path d="M0 0 C9.18713365 -0.29165504 18.83172832 0.72083179 25.90234375 7.1171875 C27.21484375 9.8671875 27.21484375 9.8671875 27.90234375 12.1171875 C28.89234375 12.4471875 29.88234375 12.7771875 30.90234375 13.1171875 C31.83137688 20.16690948 32.0343036 27.0466795 32 34.15234375 C31.99858505 35.27160751 31.9971701 36.39087128 31.99571228 37.54405212 C31.99015254 41.08929208 31.9776076 44.63446691 31.96484375 48.1796875 C31.95982354 50.59570221 31.95526155 53.01171791 31.95117188 55.42773438 C31.94019632 61.32424065 31.92349871 67.22070942 31.90234375 73.1171875 C32.89234375 73.6121875 32.89234375 73.6121875 33.90234375 74.1171875 C32.90234375 75.1171875 32.90234375 75.1171875 31.13647461 75.23071289 C30.38760986 75.22547607 29.63874512 75.22023926 28.8671875 75.21484375 C28.05830078 75.21162109 27.24941406 75.20839844 26.41601562 75.20507812 C25.56587891 75.19669922 24.71574219 75.18832031 23.83984375 75.1796875 C22.98583984 75.17517578 22.13183594 75.17066406 21.25195312 75.16601562 C19.13538712 75.15419123 17.0188569 75.13625519 14.90234375 75.1171875 C14.57234375 73.7971875 14.24234375 72.4771875 13.90234375 71.1171875 C11.12449838 72.17930485 8.49191601 73.32658941 5.83984375 74.6796875 C-0.25248634 77.66104052 -5.96975988 77.89979027 -12.53515625 76.0546875 C-18.96996413 73.71175745 -23.53131116 69.66249828 -27.09765625 63.8671875 C-28.814547 57.4288472 -29.29650644 51.01772543 -26.53515625 44.8046875 C-22.78312849 38.41185972 -17.21185355 34.49866312 -10.33984375 31.9296875 C-3.08169773 30.11077862 4.46028727 29.69788185 11.90234375 29.1171875 C11.3205953 23.8085026 11.3205953 23.8085026 8.90234375 19.1171875 C6.15155491 18.20025789 4.54285462 18.00832667 1.71484375 18.0546875 C0.45671875 18.0753125 -0.80140625 18.0959375 -2.09765625 18.1171875 C-2.09765625 18.4471875 -2.09765625 18.7771875 -2.09765625 19.1171875 C-3.16886719 19.23835937 -4.24007813 19.35953125 -5.34375 19.484375 C-6.74094377 19.65316351 -8.13807616 19.82246063 -9.53515625 19.9921875 C-10.24220703 20.07082031 -10.94925781 20.14945313 -11.67773438 20.23046875 C-13.49439057 20.45646426 -15.29828147 20.78019477 -17.09765625 21.1171875 C-17.42765625 21.7771875 -17.75765625 22.4371875 -18.09765625 23.1171875 C-18.75765625 23.4471875 -19.41765625 23.7771875 -20.09765625 24.1171875 C-21.41765625 23.4571875 -22.73765625 22.7971875 -24.09765625 22.1171875 C-23.76765625 16.8371875 -23.43765625 11.5571875 -23.09765625 6.1171875 C-15.06418673 2.85359051 -8.60112195 0.48050961 0 0 Z M4.90234375 43.1171875 C2.88085088 43.34179782 0.85921756 43.56554083 -1.1640625 43.7734375 C-4.73863331 44.40891675 -6.62335916 46.64289041 -9.09765625 49.1171875 C-10.03958073 52.95734113 -10.46600912 55.2447728 -8.91015625 58.9296875 C-6.93167058 61.31751503 -6.08419357 62.31001525 -3.09765625 63.1171875 C2.80994725 62.92661965 6.19895846 61.92468988 10.90234375 58.1171875 C13.39353328 54.3804032 13.10886635 52.37266931 13.02734375 47.9296875 C13.00929688 46.65738281 12.99125 45.38507812 12.97265625 44.07421875 C12.94945312 43.09839844 12.92625 42.12257813 12.90234375 41.1171875 C9.18635184 40.91632307 8.1302593 40.9652438 4.90234375 43.1171875 Z " fill="#D7D7D7" transform="translate(513.09765625,598.8828125)"/>
<path d="M0 0 C-1.67231437 6.09535144 -3.77636713 11.96408719 -5.9765625 17.890625 C-7.1563228 20.92935579 -7.1563228 20.92935579 -7 24 C-7.66 24 -8.32 24 -9 24 C-9.10723389 24.6590332 -9.21446777 25.31806641 -9.32495117 25.99707031 C-10.17894899 29.79604796 -11.4728429 33.39439882 -12.80078125 37.046875 C-13.21725166 38.20283173 -13.21725166 38.20283173 -13.64213562 39.38214111 C-14.2296509 41.00994838 -14.81894849 42.63711333 -15.40991211 44.26367188 C-16.30380293 46.72604249 -17.19039043 49.19095236 -18.07617188 51.65625 C-25.94827089 73.47413544 -25.94827089 73.47413544 -29 75 C-34.59211807 75.34759052 -40.58568052 75.43645211 -46 74 C-48.84968992 70.09584616 -50.38012365 65.66024583 -52.00390625 61.1484375 C-52.42359428 60.0022998 -52.42359428 60.0022998 -52.85176086 58.83300781 C-53.76025436 56.34876679 -54.66155118 53.86198608 -55.5625 51.375 C-56.50068372 48.79982841 -57.44028344 46.22517628 -58.37994385 43.65054321 C-59.00993925 41.92386879 -59.6392922 40.19695983 -60.26800537 38.46981812 C-62.19672675 33.17659431 -64.15472051 27.89554376 -66.14453125 22.625 C-66.61453877 21.37582765 -67.08451075 20.12664193 -67.55444336 18.87744141 C-68.41635124 16.59144946 -69.28284478 14.30717973 -70.15454102 12.02490234 C-70.53408936 11.01379395 -70.9136377 10.00268555 -71.3046875 8.9609375 C-71.63452637 8.09259277 -71.96436523 7.22424805 -72.30419922 6.32958984 C-73 4 -73 4 -73 0 C-66.07 0 -59.14 0 -52 0 C-52 0.99 -52 1.98 -52 3 C-51.34 3.33 -50.68 3.66 -50 4 C-50 5.65 -50 7.3 -50 9 C-48.68 9.66 -47.36 10.32 -46 11 C-46 13 -46 15 -46 17 C-45.484375 17.45375 -44.96875 17.9075 -44.4375 18.375 C-43.963125 18.91125 -43.48875 19.4475 -43 20 C-43.31229724 21.33841672 -43.64830932 22.67139075 -44 24 C-43.27587495 26.6859613 -43.27587495 26.6859613 -42 29 C-41.34 29.33 -40.68 29.66 -40 30 C-40.33 30.99 -40.66 31.98 -41 33 C-40.360625 33.53625 -39.72125 34.0725 -39.0625 34.625 C-35.99159382 38.16119499 -36 41.44880174 -36 46 C-34.72817133 42.35451313 -33.45772143 38.70854717 -32.1875 35.0625 C-31.83107422 34.04091797 -31.47464844 33.01933594 -31.10742188 31.96679688 C-26.98650327 20.68674789 -26.98650327 20.68674789 -23.8125 9.125 C-23.65394531 8.40570313 -23.49539063 7.68640625 -23.33203125 6.9453125 C-22.91587522 4.8360353 -22.91587522 4.8360353 -23 2 C-17.94303239 -3.93644023 -6.82268041 -0.79764113 0 0 Z M-40 37 C-39 39 -39 39 -39 39 Z M-39 39 C-38 41 -38 41 -38 41 Z " fill="#D7D7D7" transform="translate(638,474)"/>
<path d="M0 0 C0 6.27 0 12.54 0 19 C-2.475 18.01 -2.475 18.01 -5 17 C-12.61950758 14.45657173 -19.32387044 12.90979343 -27 16 C-31.27818328 19.18588117 -33.39303466 22.98238386 -35 28 C-35.30581471 30.75233239 -35.47882837 33.19933135 -35.4375 35.9375 C-35.42992676 36.6397168 -35.42235352 37.34193359 -35.41455078 38.06542969 C-35.24165351 43.49970453 -34.55764122 47.7995451 -31 52 C-26.47333606 56.10557893 -21.98388246 57.27076391 -16 57 C-11.92696456 56.22558412 -7.97034326 55.18908757 -4 54 C-4 53.01 -4 52.02 -4 51 C-3.01 50.67 -2.02 50.34 -1 50 C-0.01 50.495 -0.01 50.495 1 51 C1 57.27 1 63.54 1 70 C-10.97767407 75.98883703 -22.30739542 76.69087099 -35.3125 72.97265625 C-44.08286527 69.79849789 -50.18173546 64.12583875 -54.25 55.75 C-59.6869303 42.45217465 -58.71586209 29.02192911 -54.19140625 15.6015625 C-50.78277697 7.93593398 -44.47054143 2.21880156 -36.95703125 -1.30859375 C-25.41186931 -5.38742342 -11.36163575 -3.49588792 0 0 Z " fill="#D7D7D7" transform="translate(479,476)"/>
<path d="M0 0 C0 0.66 0 1.32 0 2 C0.66 2 1.32 2 2 2 C2 3.32 2 4.64 2 6 C2.01160156 6.88816406 2.02320313 7.77632813 2.03515625 8.69140625 C2.04417969 9.63886719 2.05320312 10.58632813 2.0625 11.5625 C2.07410156 12.51253906 2.08570313 13.46257812 2.09765625 14.44140625 C2 17 2 17 1 20 C0.37351562 19.98839844 -0.25296875 19.97679687 -0.8984375 19.96484375 C-2.12433594 19.95130859 -2.12433594 19.95130859 -3.375 19.9375 C-4.59316406 19.92009766 -4.59316406 19.92009766 -5.8359375 19.90234375 C-8.04937142 19.85533666 -8.04937142 19.85533666 -10 21 C-10.99 20.67 -11.98 20.34 -13 20 C-18.01042703 22.55851593 -21.13519531 25.70672746 -23 31 C-24.99195063 40.87516574 -25.38846072 50.8319364 -25.625 60.875 C-25.66333074 62.25653091 -25.70239017 63.63804181 -25.7421875 65.01953125 C-25.83524013 68.34616276 -25.9186463 71.67306184 -26 75 C-32.27 75 -38.54 75 -45 75 C-45.33 51.9 -45.66 28.8 -46 5 C-46.66 4.67 -47.32 4.34 -48 4 C-46 2 -46 2 -44.02880859 1.77294922 C-43.24328613 1.78342285 -42.45776367 1.79389648 -41.6484375 1.8046875 C-40.79765625 1.81113281 -39.946875 1.81757813 -39.0703125 1.82421875 C-37.73613281 1.84935547 -37.73613281 1.84935547 -36.375 1.875 C-35.02921875 1.88853516 -35.02921875 1.88853516 -33.65625 1.90234375 C-31.43723414 1.9259503 -29.21874923 1.9588769 -27 2 C-27 4.31 -27 6.62 -27 9 C-26.3709375 8.52949219 -25.741875 8.05898438 -25.09375 7.57421875 C-16.48089741 1.30914676 -10.70754268 -2.05723621 0 0 Z " fill="#D7D7D7" transform="translate(764,471)"/>
<path d="M0 0 C6.27 0 12.54 0 19 0 C19.33 33.66 19.66 67.32 20 102 C3 103 3 103 1 102 C-0.38463468 82.02660566 -0.11708894 62.01795451 -0.06866455 42.00952148 C-0.05829431 37.2622116 -0.05383805 32.51489616 -0.04882812 27.76757812 C-0.03821679 18.51170207 -0.020681 9.25585904 0 0 Z " fill="#D7D7D7" transform="translate(559,572)"/>
<path d="M0 0 C0.33 0.66 0.66 1.32 1 2 C-5.32127365 6.62532218 -11.03282176 8.46865754 -19 8 C-19.66 7.67 -20.32 7.34 -21 7 C-21 6.34 -21 5.68 -21 5 C-20.23816406 4.97421875 -19.47632813 4.9484375 -18.69140625 4.921875 C-11.65173196 4.53517629 -6.20605881 3.36945112 0 0 Z " fill="#D1D1D1" transform="translate(524,668)"/>
<path d="M0 0 C0.33 0 0.66 0 1 0 C1 5.61 1 11.22 1 17 C0.67 17 0.34 17 0 17 C0 11.39 0 5.78 0 0 Z " fill="#D4D4D4" transform="translate(546,631)"/>
<path d="M0 0 C0.33 0 0.66 0 1 0 C1.05399736 1.45792884 1.09279177 2.91642712 1.125 4.375 C1.14820313 5.18710937 1.17140625 5.99921875 1.1953125 6.8359375 C1 9 1 9 -1 11 C-1.0270043 9.54176788 -1.04639787 8.08339325 -1.0625 6.625 C-1.07410156 5.81289063 -1.08570313 5.00078125 -1.09765625 4.1640625 C-1 2 -1 2 0 0 Z " fill="#D4D4D4" transform="translate(481,483)"/>
<path d="M0 0 C0 0.66 0 1.32 0 2 C-1.32 2.33 -2.64 2.66 -4 3 C-4 2.34 -4 1.68 -4 1 C-2 0 -2 0 0 0 Z " fill="#D3D3D3" transform="translate(527,670)"/>
<path d="M0 0 C0.33 0 0.66 0 1 0 C1 1.65 1 3.3 1 5 C0.67 5 0.34 5 0 5 C0 3.35 0 1.7 0 0 Z " fill="#D4D4D4" transform="translate(558,668)"/>
<path d="M0 0 C0.33 0 0.66 0 1 0 C1 1.65 1 3.3 1 5 C0.67 5 0.34 5 0 5 C0 3.35 0 1.7 0 0 Z " fill="#D4D4D4" transform="translate(481,531)"/>
<path d="M0 0 C0.99 0.495 0.99 0.495 2 1 C1.01 2.485 1.01 2.485 0 4 C0 2.68 0 1.36 0 0 Z " fill="#D4D4D4" transform="translate(369,518)"/>
<path d="M0 0 C1 4 1 4 1 4 Z " fill="#D3D3D3" transform="translate(546,667)"/>
<path d="M0 0 C4 1 4 1 4 1 Z " fill="#D3D3D3" transform="translate(521,642)"/>
<path d="M0 0 C4 1 4 1 4 1 Z " fill="#D4D4D4" transform="translate(438,642)"/>
<path d="M0 0 C1 4 1 4 1 4 Z " fill="#D4D4D4" transform="translate(562,519)"/>
<path d="M0 0 C1 4 1 4 1 4 Z " fill="#D4D4D4" transform="translate(662,517)"/>
<path d="M0 0 C0.99 1.485 0.99 1.485 2 3 C1.34 3 0.68 3 0 3 C0 2.01 0 1.02 0 0 Z " fill="#D4D4D4" transform="translate(510,510)"/>
<path d="" fill="#D3D3D3" transform="translate(0,0)"/>
<path d="M0 0 C3 1 3 1 3 1 Z " fill="#D4D4D4" transform="translate(443,642)"/>
<path d="" fill="#D4D4D4" transform="translate(0,0)"/>
<path d="" fill="#D4D4D4" transform="translate(0,0)"/>
<path d="" fill="#D4D4D4" transform="translate(0,0)"/>
<path d="" fill="#D6D6D6" transform="translate(0,0)"/>
<path d="" fill="#D5D5D5" transform="translate(0,0)"/>
<path d="" fill="#D3D3D3" transform="translate(0,0)"/>
<path d="" fill="#D4D4D4" transform="translate(0,0)"/>
<path d="M0 0 C2 1 2 1 2 1 Z " fill="#D3D3D3" transform="translate(517,627)"/>
<path d="M0 0 C2 1 2 1 2 1 Z " fill="#D5D5D5" transform="translate(448,595)"/>
<path d="" fill="#D3D3D3" transform="translate(0,0)"/>
<path d="" fill="#D3D3D3" transform="translate(0,0)"/>
<path d="" fill="#D3D3D3" transform="translate(0,0)"/>
<path d="" fill="#D4D4D4" transform="translate(0,0)"/>
<path d="" fill="#D4D4D4" transform="translate(0,0)"/>
<path d="" fill="#D4D4D4" transform="translate(0,0)"/>
<path d="" fill="#D4D4D4" transform="translate(0,0)"/>
<path d="M0 0 C2 1 2 1 2 1 Z " fill="#D6D6D6" transform="translate(602,514)"/>
<path d="" fill="#D4D4D4" transform="translate(0,0)"/>
<path d="" fill="#D5D5D5" transform="translate(0,0)"/>
<path d="" fill="#D5D5D5" transform="translate(0,0)"/>
<path d="" fill="#D5D5D5" transform="translate(0,0)"/>
<path d="M0 0 C2 1 2 1 2 1 Z " fill="#D2D2D2" transform="translate(521,490)"/>
<path d="M0 0 C2 1 2 1 2 1 Z " fill="#D2D2D2" transform="translate(515,471)"/>
<path d="M0 0 C2 1 2 1 2 1 Z " fill="#D3D3D3" transform="translate(558,431)"/>
<path d="" fill="#D3D3D3" transform="translate(0,0)"/>
<path d="" fill="#D4D4D4" transform="translate(0,0)"/>
<path d="" fill="#E3E3E3" transform="translate(0,0)"/>
<path d="" fill="#D4D4D4" transform="translate(0,0)"/>
<path d="" fill="#D3D3D3" transform="translate(0,0)"/>
<path d="" fill="#D3D3D3" transform="translate(0,0)"/>
<path d="" fill="#D2D2D2" transform="translate(0,0)"/>
<path d="" fill="#D4D4D4" transform="translate(0,0)"/>
<path d="" fill="#D4D4D4" transform="translate(0,0)"/>
<path d="" fill="#D3D3D3" transform="translate(0,0)"/>
<path d="" fill="#D4D4D4" transform="translate(0,0)"/>
<path d="" fill="#D5D5D5" transform="translate(0,0)"/>
<path d="" fill="#D3D3D3" transform="translate(0,0)"/>
<path d="" fill="#D2D2D2" transform="translate(0,0)"/>
<path d="" fill="#D5D5D5" transform="translate(0,0)"/>
<path d="" fill="#D5D5D5" transform="translate(0,0)"/>
<path d="" fill="#D5D5D5" transform="translate(0,0)"/>
<path d="" fill="#D4D4D4" transform="translate(0,0)"/>
<path d="" fill="#D4D4D4" transform="translate(0,0)"/>
<path d="" fill="#D6D6D6" transform="translate(0,0)"/>
<path d="" fill="#D5D5D5" transform="translate(0,0)"/>
<path d="" fill="#D4D4D4" transform="translate(0,0)"/>
<path d="" fill="#D4D4D4" transform="translate(0,0)"/>
<path d="" fill="#D3D3D3" transform="translate(0,0)"/>
<path d="" fill="#D5D5D5" transform="translate(0,0)"/>
<path d="" fill="#D5D5D5" transform="translate(0,0)"/>
<path d="" fill="#D4D4D4" transform="translate(0,0)"/>
<path d="" fill="#D3D3D3" transform="translate(0,0)"/>
<path d="" fill="#D5D5D5" transform="translate(0,0)"/>
<path d="" fill="#D3D3D3" transform="translate(0,0)"/>
<path d="" fill="#D2D2D2" transform="translate(0,0)"/>
<path d="" fill="#D3D3D3" transform="translate(0,0)"/>
<path d="" fill="#D5D5D5" transform="translate(0,0)"/>
<path d="" fill="#D3D3D3" transform="translate(0,0)"/>
<path d="" fill="#D3D3D3" transform="translate(0,0)"/>
<path d="" fill="#D3D3D3" transform="translate(0,0)"/>
<path d="" fill="#D2D2D2" transform="translate(0,0)"/>
<path d="" fill="#D3D3D3" transform="translate(0,0)"/>
<path d="" fill="#D4D4D4" transform="translate(0,0)"/>
<path d="" fill="#D4D4D4" transform="translate(0,0)"/>
<path d="" fill="#D4D4D4" transform="translate(0,0)"/>
<path d="" fill="#D4D4D4" transform="translate(0,0)"/>
<path d="" fill="#D5D5D5" transform="translate(0,0)"/>
<path d="" fill="#D4D4D4" transform="translate(0,0)"/>
<path d="" fill="#D5D5D5" transform="translate(0,0)"/>
<path d="" fill="#D5D5D5" transform="translate(0,0)"/>
<path d="" fill="#D4D4D4" transform="translate(0,0)"/>
<path d="" fill="#D5D5D5" transform="translate(0,0)"/>
<path d="" fill="#D5D5D5" transform="translate(0,0)"/>
<path d="" fill="#D5D5D5" transform="translate(0,0)"/>
<path d="" fill="#D5D5D5" transform="translate(0,0)"/>
<path d="" fill="#D5D5D5" transform="translate(0,0)"/>
<path d="" fill="#D4D4D4" transform="translate(0,0)"/>
<path d="" fill="#D5D5D5" transform="translate(0,0)"/>
<path d="" fill="#D5D5D5" transform="translate(0,0)"/>
<path d="" fill="#D4D4D4" transform="translate(0,0)"/>
<path d="" fill="#D5D5D5" transform="translate(0,0)"/>
<path d="" fill="#D5D5D5" transform="translate(0,0)"/>
<path d="" fill="#D5D5D5" transform="translate(0,0)"/>
<path d="" fill="#D5D5D5" transform="translate(0,0)"/>
<path d="" fill="#D6D6D6" transform="translate(0,0)"/>
<path d="" fill="#D5D5D5" transform="translate(0,0)"/>
<path d="" fill="#D4D4D4" transform="translate(0,0)"/>
<path d="" fill="#D4D4D4" transform="translate(0,0)"/>
<path d="" fill="#D4D4D4" transform="translate(0,0)"/>
<path d="" fill="#D4D4D4" transform="translate(0,0)"/>
<path d="" fill="#D4D4D4" transform="translate(0,0)"/>
<path d="" fill="#D4D4D4" transform="translate(0,0)"/>
<path d="" fill="#D4D4D4" transform="translate(0,0)"/>
<path d="" fill="#D4D4D4" transform="translate(0,0)"/>
<path d="" fill="#D4D4D4" transform="translate(0,0)"/>
<path d="" fill="#D4D4D4" transform="translate(0,0)"/>
<path d="" fill="#D4D4D4" transform="translate(0,0)"/>
<path d="" fill="#D4D4D4" transform="translate(0,0)"/>
<path d="" fill="#D5D5D5" transform="translate(0,0)"/>
<path d="" fill="#D2D2D2" transform="translate(0,0)"/>
<path d="" fill="#D4D4D4" transform="translate(0,0)"/>
<path d="" fill="#D5D5D5" transform="translate(0,0)"/>
<path d="" fill="#D4D4D4" transform="translate(0,0)"/>
<path d="" fill="#D4D4D4" transform="translate(0,0)"/>
<path d="" fill="#D4D4D4" transform="translate(0,0)"/>
<path d="" fill="#D3D3D3" transform="translate(0,0)"/>
<path d="" fill="#D3D3D3" transform="translate(0,0)"/>
<path d="" fill="#D6D6D6" transform="translate(0,0)"/>
<path d="" fill="#D3D3D3" transform="translate(0,0)"/>
<path d="" fill="#D4D4D4" transform="translate(0,0)"/>
<path d="" fill="#D4D4D4" transform="translate(0,0)"/>
<path d="" fill="#D3D3D3" transform="translate(0,0)"/>
<path d="" fill="#D3D3D3" transform="translate(0,0)"/>
<path d="" fill="#D3D3D3" transform="translate(0,0)"/>
<path d="" fill="#D3D3D3" transform="translate(0,0)"/>
<path d="" fill="#D3D3D3" transform="translate(0,0)"/>
<path d="" fill="#D5D5D5" transform="translate(0,0)"/>
<path d="" fill="#D5D5D5" transform="translate(0,0)"/>
<path d="" fill="#D6D6D6" transform="translate(0,0)"/>
<path d="" fill="#D5D5D5" transform="translate(0,0)"/>
<path d="" fill="#D5D5D5" transform="translate(0,0)"/>
<path d="" fill="#D6D6D6" transform="translate(0,0)"/>
<path d="" fill="#D4D4D4" transform="translate(0,0)"/>
<path d="" fill="#D6D6D6" transform="translate(0,0)"/>
<path d="" fill="#D6D6D6" transform="translate(0,0)"/>
<path d="" fill="#D3D3D3" transform="translate(0,0)"/>
<path d="" fill="#D4D4D4" transform="translate(0,0)"/>
<path d="" fill="#D5D5D5" transform="translate(0,0)"/>
<path d="" fill="#D5D5D5" transform="translate(0,0)"/>
<path d="" fill="#D3D3D3" transform="translate(0,0)"/>
<path d="" fill="#D4D4D4" transform="translate(0,0)"/>
<path d="" fill="#D4D4D4" transform="translate(0,0)"/>
<path d="" fill="#D2D2D2" transform="translate(0,0)"/>
<path d="" fill="#D3D3D3" transform="translate(0,0)"/>
<path d="" fill="#D6D6D6" transform="translate(0,0)"/>
</svg>
