<?xml version="1.0" encoding="UTF-8"?>
<svg version="1.1" xmlns="http://www.w3.org/2000/svg" width="341" height="341">
<path d="M0 0 C19.07077064 19.9802997 28.45605322 44.83856443 28.52929688 72.21337891 C28.53891525 74.37703213 28.56995799 76.53969736 28.6015625 78.703125 C28.79935387 104.72243997 19.24167482 131.31229108 1.2890625 150.41015625 C0.52078125 151.25707031 -0.2475 152.10398438 -1.0390625 152.9765625 C-7.2279473 159.51481983 -14.13645082 164.62014918 -21.7109375 169.41015625 C-22.76796875 170.08949219 -23.825 170.76882812 -24.9140625 171.46875 C-34.94411093 177.56521308 -45.68896378 181.48478113 -56.7109375 185.41015625 C-55.97230469 186.33054688 -55.23367187 187.2509375 -54.47265625 188.19921875 C-49.35669675 194.58056185 -44.25426527 200.97119643 -39.2109375 207.41015625 C-34.90606141 212.90604029 -30.55645478 218.36442838 -26.18701172 223.80908203 C-22.87235462 227.94412477 -19.59602386 232.10703053 -16.3359375 236.28515625 C-11.55457139 242.40790507 -6.63085213 248.40752737 -1.65673828 254.37451172 C2.14132548 258.94782538 5.76603103 263.6217713 9.2890625 268.41015625 C7.26472344 270.43449531 3.09510849 269.57778677 0.31616211 269.5871582 C-0.51969421 269.5937294 -1.35555054 269.6003006 -2.21673584 269.60707092 C-4.99735597 269.62686283 -7.7779218 269.6384829 -10.55859375 269.6484375 C-11.98198972 269.65455079 -11.98198972 269.65455079 -13.43414116 269.66078758 C-18.46186991 269.68167886 -23.48957116 269.69596421 -28.51733398 269.70532227 C-33.70359227 269.71636031 -38.88941836 269.75072125 -44.07552433 269.79049397 C-48.06736528 269.81669339 -52.05910412 269.82501733 -56.05102348 269.82860374 C-57.9619175 269.83346539 -59.87280709 269.84506732 -61.78361702 269.86364174 C-64.46684565 269.88809164 -67.14896856 269.88705698 -69.83227539 269.88012695 C-71.00704689 269.89934204 -71.00704689 269.89934204 -72.20555115 269.91894531 C-79.24821085 269.85300137 -84.77112161 267.52435106 -89.80078125 262.5625 C-90.76297374 261.50251902 -91.71195019 260.43041457 -92.6484375 259.34765625 C-93.16075928 258.77474854 -93.67308105 258.20184082 -94.20092773 257.61157227 C-98.07804619 253.24081538 -101.76741086 248.72267308 -105.42578125 244.16796875 C-108.84798669 240.03792253 -112.4958358 236.1282375 -116.140625 232.1953125 C-118.28081898 229.87622693 -120.38603937 227.53744985 -122.4609375 225.16015625 C-122.9798204 224.58642776 -123.49870331 224.01269928 -124.03330994 223.42158508 C-125.7109375 221.41015625 -125.7109375 221.41015625 -126.93019104 219.32511902 C-128.64027939 216.70178557 -130.09535978 215.16518781 -132.7109375 213.41015625 C-138.67489523 212.23636241 -144.55690295 212.40465701 -150.61328125 212.5234375 C-152.37772126 212.53075463 -154.14217671 212.53495147 -155.90663147 212.53617859 C-159.59817169 212.54692444 -163.28815114 212.58393559 -166.97924805 212.6418457 C-171.6945915 212.71534663 -176.40859359 212.74108138 -181.12445736 212.74926472 C-184.76641472 212.75788038 -188.40809836 212.78304384 -192.04992867 212.81401634 C-193.78772313 212.82852381 -195.52554533 212.84004461 -197.26338005 212.84844398 C-199.69942218 212.86449063 -202.13435222 212.90060357 -204.57006836 212.94262695 C-205.27836792 212.94440948 -205.98666748 212.94619202 -206.71643066 212.94802856 C-214.23864619 213.12308143 -220.07530689 215.2196488 -225.53198242 220.41821289 C-226.37707367 221.21703888 -227.22216492 222.01586487 -228.09286499 222.83889771 C-228.95682892 223.68741302 -229.82079285 224.53592834 -230.7109375 225.41015625 C-231.5735318 226.25649628 -232.4361261 227.1028363 -233.32485962 227.974823 C-235.60798923 230.2436757 -237.87642961 232.52576469 -240.13442421 234.81960869 C-241.61612535 236.32379247 -243.1021478 237.82358762 -244.58940125 239.32228088 C-248.80924859 243.5753237 -253.02443253 247.8329151 -257.22973633 252.1003418 C-259.82188869 254.73017396 -262.42133256 257.35260761 -265.02556419 259.97047615 C-266.00951067 260.96244651 -266.99067927 261.95718069 -267.96892738 262.95477104 C-269.33209675 264.34447598 -270.70551837 265.72410182 -272.0793457 267.10327148 C-273.24322563 268.28166847 -273.24322563 268.28166847 -274.43061829 269.48387146 C-277.98612164 272.48735974 -280.56525379 273.45107353 -285.2109375 273.28515625 C-289.12446795 272.30677364 -290.947943 271.33103615 -293.7109375 268.41015625 C-295.76267086 263.61384409 -295.99899026 259.12921402 -295.97836304 253.98919678 C-295.98289415 253.15555863 -295.98742526 252.32192048 -295.99209368 251.46302056 C-296.00472729 248.67678767 -296.00311792 245.89075051 -296.00146484 243.10449219 C-296.00745115 241.10327911 -296.01425694 239.10206834 -296.02182007 237.1008606 C-296.03948703 231.66628397 -296.04417604 226.23177034 -296.04545164 220.79716778 C-296.04687458 217.39553615 -296.05114712 213.99392045 -296.05644608 210.59229279 C-296.07495591 198.70604947 -296.0831164 186.819851 -296.08154297 174.93359375 C-296.08034464 163.88769271 -296.10138385 152.84198804 -296.1330303 141.79613662 C-296.15928328 132.29092045 -296.16990634 122.785768 -296.16863215 113.28051591 C-296.16812472 107.6136957 -296.17368473 101.94704963 -296.19498825 96.28026581 C-296.21452035 90.93841285 -296.21439384 85.59689726 -296.19995499 80.25503159 C-296.1978835 78.30816269 -296.20246704 76.36127187 -296.2146759 74.41444016 C-296.37948335 46.28189487 -288.25690454 21.33716046 -268.296875 0.95703125 C-251.97766518 -15.11566483 -229.40687633 -27.59226085 -205.96281433 -27.74806213 C-204.84007614 -27.75785095 -203.71733795 -27.76763977 -202.56057739 -27.77772522 C-200.73464554 -27.78635841 -200.73464554 -27.78635841 -198.87182617 -27.79516602 C-197.57842819 -27.80506561 -196.28503021 -27.81496521 -194.95243835 -27.82516479 C-191.41513162 -27.8521223 -187.8778117 -27.87318769 -184.34045959 -27.89316678 C-180.62907419 -27.91512278 -176.9177285 -27.94247305 -173.20637512 -27.96922302 C-166.17308293 -28.01908956 -159.13976814 -28.06403401 -152.10643226 -28.10724539 C-144.13443018 -28.15648487 -136.16247143 -28.21152849 -128.19051015 -28.26692498 C-115.77310851 -28.35298584 -103.35568798 -28.43601352 -90.93823242 -28.51391602 C-89.72701721 -28.52169571 -88.515802 -28.5294754 -87.2678833 -28.53749084 C-54.56538588 -28.73896183 -24.41226663 -23.32180515 0 0 Z M-223.7109375 47.41015625 C-234.59262256 60.59542384 -238.78673929 74.49230547 -237.7109375 91.41015625 C-234.53456476 115.17519956 -212.61060009 131.65684138 -196.6015625 147.6171875 C-194.78003319 149.43684757 -192.95872762 151.25673163 -191.13763428 153.076828 C-186.86872277 157.34233899 -182.59759698 161.60562051 -178.32533622 165.86777657 C-173.45251603 170.72932734 -168.58261562 175.5937986 -163.71292925 180.45848811 C-153.71545594 190.4455751 -143.71441572 200.4290842 -133.7109375 210.41015625 C-132.60209335 209.46670673 -131.49425225 208.52207826 -130.38682556 207.57696533 C-129.46126814 206.78809874 -129.46126814 206.78809874 -128.5170126 205.98329544 C-124.41802353 202.41296752 -120.62520969 198.51035984 -116.78344727 194.66796875 C-115.25748916 193.14423112 -113.72365605 191.62871195 -112.18945312 190.11328125 C-111.21826293 189.14501955 -110.24754192 188.17628696 -109.27734375 187.20703125 C-108.40021729 186.33401367 -107.52309082 185.46099609 -106.61938477 184.56152344 C-104.48973417 182.64010613 -104.48973417 182.64010613 -104.7109375 180.41015625 C-104.0509375 180.41015625 -103.3909375 180.41015625 -102.7109375 180.41015625 C-102.7109375 179.75015625 -102.7109375 179.09015625 -102.7109375 178.41015625 C-102.1334375 178.18328125 -101.5559375 177.95640625 -100.9609375 177.72265625 C-98.57884831 176.51390716 -98.57884831 176.51390716 -96.9609375 174.22265625 C-95.0132589 171.78805799 -93.19627292 170.03201796 -90.8359375 168.03515625 C-87.54894658 165.23603041 -84.80811746 162.28361147 -82.0703125 158.95703125 C-80.7109375 157.41015625 -80.7109375 157.41015625 -78.2734375 155.47265625 C-75.22020437 153.01517593 -72.86369201 150.21775781 -70.359375 147.21484375 C-68.7109375 145.41015625 -68.7109375 145.41015625 -65.7109375 143.41015625 C-65.7109375 142.75015625 -65.7109375 142.09015625 -65.7109375 141.41015625 C-65.1540625 141.20390625 -64.5971875 140.99765625 -64.0234375 140.78515625 C-61.4196107 139.23693491 -59.85874499 137.33195111 -57.984375 134.98046875 C-54.98331523 131.27977542 -51.47319139 128.20872165 -47.8359375 125.16015625 C-35.70562172 114.60907026 -31.12556859 102.44770225 -29.421875 86.74609375 C-28.89575794 72.44527556 -33.18558254 57.64183575 -42.44921875 46.734375 C-49.10639902 39.8932312 -56.63437104 36.10702743 -65.7109375 33.41015625 C-66.61199219 33.12011719 -66.61199219 33.12011719 -67.53125 32.82421875 C-82.19437098 30.03875132 -97.39992731 33.13613906 -109.7109375 41.41015625 C-117.92243297 47.79114567 -124.77826181 55.70321266 -131.7109375 63.41015625 C-134.73670075 62.07314354 -136.63914359 60.66247683 -138.8125 58.1796875 C-139.38000977 57.54466309 -139.94751953 56.90963867 -140.53222656 56.25537109 C-141.12745117 55.5845752 -141.72267578 54.9137793 -142.3359375 54.22265625 C-147.65206184 48.39202376 -152.8176868 43.37205781 -159.7109375 39.41015625 C-160.50757813 38.94351563 -161.30421875 38.476875 -162.125 37.99609375 C-183.45704569 26.41584038 -207.07515955 29.73464218 -223.7109375 47.41015625 Z " fill="#104178" transform="translate(305.7109375,52.58984375)"/>
<path d="M0 0 C28.80327902 -0.55223239 56.73319679 8.5491491 77.7109375 28.58984375 C96.78170814 48.57014345 106.16699072 73.42840818 106.24023438 100.80322266 C106.24985275 102.96687588 106.28089549 105.12954111 106.3125 107.29296875 C106.51029137 133.31228372 96.95261232 159.90213483 79 179 C78.23171875 179.84691406 77.4634375 180.69382813 76.671875 181.56640625 C70.4829902 188.10466358 63.57448668 193.20999293 56 198 C54.94296875 198.67933594 53.8859375 199.35867187 52.796875 200.05859375 C42.76682657 206.15505683 32.02197372 210.07462488 21 214 C21.73863281 214.92039063 22.47726563 215.84078125 23.23828125 216.7890625 C28.35424075 223.1704056 33.45667223 229.56104018 38.5 236 C42.80487609 241.49588404 47.15448272 246.95427213 51.52392578 252.39892578 C54.83858288 256.53396852 58.11491364 260.69687428 61.375 264.875 C66.15636611 270.99774882 71.08008537 276.99737112 76.05419922 282.96435547 C79.85226298 287.53766913 83.47696853 292.21161505 87 297 C84.97566094 299.02433906 80.80604599 298.16763052 78.02709961 298.17700195 C77.19124329 298.18357315 76.35538696 298.19014435 75.49420166 298.19691467 C72.71358153 298.21670658 69.9330157 298.22832665 67.15234375 298.23828125 C65.72894778 298.24439454 65.72894778 298.24439454 64.27679634 298.25063133 C59.24906759 298.27152261 54.22136634 298.28580796 49.19360352 298.29516602 C44.00734523 298.30620406 38.82151914 298.340565 33.63541317 298.38033772 C29.64357222 298.40653714 25.65183338 298.41486108 21.65991402 298.41844749 C19.74902 298.42330914 17.83813041 298.43491107 15.92732048 298.45348549 C13.24409185 298.47793539 10.56196894 298.47690073 7.87866211 298.4699707 C6.70389061 298.48918579 6.70389061 298.48918579 5.50538635 298.50878906 C-1.53727335 298.44284512 -7.06018411 296.11419481 -12.08984375 291.15234375 C-13.05203624 290.09236277 -14.00101269 289.02025832 -14.9375 287.9375 C-15.44982178 287.36459229 -15.96214355 286.79168457 -16.48999023 286.20141602 C-20.36710869 281.83065913 -24.05647336 277.31251683 -27.71484375 272.7578125 C-31.13704919 268.62776628 -34.7848983 264.71808125 -38.4296875 260.78515625 C-41.12945476 257.85972455 -43.76988258 254.8942633 -46.359375 251.87109375 C-47.54398906 250.52006962 -48.76825131 249.20346037 -50.015625 247.91015625 C-50.67046875 247.21792969 -51.3253125 246.52570313 -52 245.8125 C-52.8971875 244.89404297 -52.8971875 244.89404297 -53.8125 243.95703125 C-55 242 -55 242 -54.93359375 239.75927734 C-53.63344609 235.91663381 -51.11253653 233.63559208 -48.25 230.89453125 C-47.67668945 230.32925217 -47.10337891 229.76397308 -46.51269531 229.18156433 C-44.68435882 227.38216883 -42.84289923 225.59696702 -41 223.8125 C-39.15978119 222.01478102 -37.32239572 220.21425325 -35.48730469 218.41130066 C-34.34567808 217.29138236 -33.20058843 216.17498131 -32.05175781 215.06245422 C-29.15898515 212.31392033 -29.15898515 212.31392033 -27 209 C-26.34 209 -25.68 209 -25 209 C-25 208.34 -25 207.68 -25 207 C-23.3777546 205.29006566 -21.70586575 203.62652316 -20 202 C-19.443125 201.401875 -18.88625 200.80375 -18.3125 200.1875 C-17 199 -17 199 -15 199 C-14.773125 198.443125 -14.54625 197.88625 -14.3125 197.3125 C-12.04399551 193.31561114 -9.38100054 190.46033351 -5 189 C-4.71125 188.4225 -4.4225 187.845 -4.125 187.25 C-2.59906937 184.19813874 -0.46736935 182.35770849 2 180 C3.10515781 178.87597364 4.20926028 177.75090903 5.3125 176.625 C7.84361291 174.0828342 10.4611542 171.70607634 13.1875 169.375 C16.17921227 166.79752481 18.59837818 164.14695273 21 161 C23.65232671 158.20430428 26.38940383 155.67454454 29.375 153.25 C41.33415297 143.08862819 45.63779779 130.55435011 47.2890625 115.3359375 C47.81232436 101.11272872 43.55940803 86.18271295 34.3203125 75.32421875 C24.86461042 65.85259798 12.62904333 61.6693556 -0.5625 61.5625 C-17.46031431 61.83110687 -30.15757322 68.06985154 -42 80 C-46.07779597 84.26286804 -50.05497969 88.61438464 -54 93 C-58.73570085 90.88163573 -61.71991922 87.52554229 -65.25 83.8125 C-65.8996875 83.16474609 -66.549375 82.51699219 -67.21875 81.84960938 C-70.22012181 78.6937552 -71.85471272 76.86881794 -72.5859375 72.49609375 C-71.92465394 68.55043517 -70.84823684 64.95247681 -69.375 61.25 C-69.10139648 60.5489917 -68.82779297 59.8479834 -68.54589844 59.12573242 C-59.33197148 36.05653471 -42.54854515 17.89088979 -20.02734375 7.25 C-13.57616026 4.58628553 -7.02732542 2 0 2 C0 1.34 0 0.68 0 0 Z " fill="#2FB1EA" transform="translate(228,24)"/>
<path d="M0 0 C3.81732597 3.16756836 5.82636293 5.22890188 6.3125 10.1875 C5.68922139 17.79149898 0.81046659 22.62715012 -4.38916016 27.74560547 C-5.02051376 28.37900345 -5.65186737 29.01240143 -6.30235291 29.66499329 C-8.37408479 31.73971366 -10.45630554 33.80354001 -12.5390625 35.8671875 C-13.98645383 37.31151881 -15.43325302 38.75644372 -16.87948608 40.20193481 C-19.90274525 43.22060368 -22.93083325 46.23430949 -25.96289062 49.24414062 C-29.85489546 53.10776275 -33.73807661 56.98010348 -37.61814308 60.85571098 C-40.60125224 63.83467158 -43.58718202 66.81079022 -46.57416916 69.78586197 C-48.00760903 71.2135959 -49.44057577 72.641805 -50.87306595 74.07049179 C-52.8693142 76.05989155 -54.86890765 78.04586176 -56.86962891 80.03076172 C-57.46395218 80.62396713 -58.05827545 81.21717255 -58.67060852 81.82835388 C-62.18132304 85.30221034 -64.1871344 87.15589787 -69.125 87.5 C-73.03521817 87.40528848 -74.83565409 86.73019648 -77.68603516 84.06591797 C-78.3762677 83.42748962 -79.06650024 82.78906128 -79.77764893 82.13128662 C-80.87771271 81.07629974 -80.87771271 81.07629974 -82 80 C-82.76318542 79.27653381 -83.52637085 78.55306763 -84.31268311 77.80767822 C-89.74741427 72.60713533 -95.09144321 67.3129142 -100.43798828 62.02197266 C-102.39764097 60.08470013 -104.36662045 58.15769614 -106.34423828 56.23876953 C-109.21556899 53.45240306 -112.05753925 50.63770498 -114.8984375 47.8203125 C-115.78171722 46.97002472 -116.66499695 46.11973694 -117.57504272 45.24368286 C-122.52819868 40.27412188 -125.78506747 36.22236009 -126 29 C-125.10541525 24.97436862 -123.34996546 22.40510341 -120 20 C-116.94358214 19.09180726 -114.16967466 18.58968613 -111 19 C-105.44773454 22.19476409 -101.23337471 26.5084236 -96.7578125 31.046875 C-95.98944061 31.81807678 -95.22106873 32.58927856 -94.42941284 33.3838501 C-91.98985106 35.83455682 -89.55735761 38.29214497 -87.125 40.75 C-85.46660843 42.41842869 -83.80775914 44.08640255 -82.1484375 45.75390625 C-78.09364317 49.8306855 -74.04462098 53.91312879 -70 58 C-63.85550669 52.96768396 -58.30027624 47.40426392 -52.7213974 41.76599693 C-51.01735357 40.04439311 -49.30964397 38.3265027 -47.60089111 36.60957336 C-42.74815782 31.73251963 -37.90125878 26.84969701 -33.05859375 21.96264648 C-30.08513302 18.96244367 -27.10685127 15.96709777 -24.12552643 12.97471046 C-22.99290955 11.835884 -21.86219395 10.69516336 -20.73342133 9.55252647 C-19.16110143 7.96104258 -17.58276521 6.37576642 -16.00292969 4.79174805 C-14.65893097 3.43656319 -14.65893097 3.43656319 -13.28778076 2.05400085 C-9.2233913 -1.59506359 -5.06721632 -1.47176458 0 0 Z " fill="#37B28A" transform="translate(233,120)"/>
<path d="M0 0 C1.13574463 -0.00137466 2.27148926 -0.00274933 3.44165039 -0.00416565 C5.28879135 0.00122726 5.28879135 0.00122726 7.17324829 0.00672913 C8.48110291 0.0065831 9.78895752 0.00643707 11.13644409 0.00628662 C14.71036883 0.00600045 18.2842598 0.0118681 21.85817671 0.01886058 C25.59777116 0.02512406 29.33736644 0.02570028 33.07696533 0.02688599 C40.15288322 0.02999048 47.22878561 0.03819197 54.30469668 0.04823548 C62.36272147 0.05942402 70.42074702 0.06491397 78.47877765 0.06993091 C95.0496324 0.08037532 111.62047157 0.09795767 128.1913147 0.12025452 C124.06303595 2.26773625 120.83348518 2.73974874 116.1913147 3.12025452 C115.8613147 2.79025452 115.5313147 2.46025452 115.1913147 2.12025452 C113.67317769 2.02790099 112.15072492 2.00557562 110.62979126 2.01104736 C109.64328583 2.01230621 108.6567804 2.01356506 107.64038086 2.01486206 C106.54859528 2.0215239 105.45680969 2.02818573 104.3319397 2.03504944 C103.18867218 2.03823181 102.04540466 2.04141418 100.86749268 2.04469299 C97.05871493 2.05735378 93.25004652 2.07823652 89.4413147 2.10072327 C87.48865692 2.11115882 87.48865692 2.11115882 85.49655151 2.12180519 C79.30442469 2.15510673 73.11235008 2.19317577 66.92028999 2.2371704 C59.80602096 2.28758008 52.69191648 2.32202064 45.57749939 2.34235114 C40.06291628 2.35916611 34.54854392 2.39121721 29.03410339 2.43419725 C25.74988973 2.45944327 22.465987 2.47662729 19.18167114 2.4815731 C-10.970446 2.54021954 -37.67281317 8.57381238 -59.99227905 30.07337952 C-74.78438898 45.59195671 -85.98394878 66.87605153 -85.94239807 88.62269592 C-85.94466363 89.48900446 -85.94692918 90.355313 -85.94926339 91.24787331 C-85.95560254 94.15586803 -85.95477409 97.06381614 -85.95394897 99.97181702 C-85.95694047 102.05456096 -85.96034297 104.13730434 -85.96412659 106.220047 C-85.97297055 111.88105815 -85.97530483 117.5420542 -85.97594237 123.20307159 C-85.97689109 127.92502058 -85.98056885 132.64696603 -85.98411447 137.36891365 C-85.9922601 148.50543013 -85.99469856 159.64193852 -85.99398804 170.77845764 C-85.99338681 182.2778268 -86.00394729 193.77714912 -86.0197317 205.27650642 C-86.03279172 215.14153833 -86.0381726 225.00655489 -86.03753263 234.87159538 C-86.03727724 240.76710023 -86.04015101 246.66256343 -86.05071068 252.55805969 C-86.0603661 258.10002985 -86.06048845 263.64191832 -86.05319405 269.1838913 C-86.0521451 271.22048817 -86.05452935 273.25709006 -86.0605545 275.29367828 C-86.06823352 278.06848704 -86.06365688 280.84301081 -86.05592346 283.61781311 C-86.06106703 284.4283143 -86.06621059 285.2388155 -86.07151002 286.07387733 C-86.06708178 291.41905868 -86.06708178 291.41905868 -83.8086853 296.12025452 C-80.50012395 297.77453519 -77.35933725 297.8645432 -73.8086853 297.12025452 C-67.15351854 292.70145041 -61.68418892 286.07995575 -56.10220146 280.39723969 C-54.51961328 278.78761294 -52.93234981 277.18273465 -51.34361267 275.57917786 C-46.83251507 271.0257066 -42.32441194 266.4693873 -37.83236694 261.89710999 C-35.06969496 259.08577781 -32.29723334 256.28442675 -29.51823616 253.48923492 C-28.46805238 252.42920136 -27.42152213 251.36553438 -26.37887383 250.29808807 C-24.91994924 248.8052059 -23.44882947 247.32539967 -21.97445679 245.84779358 C-20.72824806 244.58373688 -20.72824806 244.58373688 -19.4568634 243.29414368 C-14.01680674 238.82840166 -8.73933526 237.67384936 -1.85385132 237.68788147 C-0.71115028 237.67259399 -0.71115028 237.67259399 0.45463562 237.65699768 C2.94896963 237.62703123 5.44291859 237.61762711 7.93740845 237.60853577 C9.67619588 237.5916769 11.41497122 237.57352504 13.1537323 237.55413818 C17.71238423 237.50676305 22.27098709 237.47687311 26.82980347 237.45069885 C31.48881721 237.42083012 36.14766211 237.37432155 40.80654907 237.32923889 C49.93471573 237.24334796 59.06291727 237.17593967 68.1913147 237.12025452 C67.73393134 236.66655833 67.27654799 236.21286215 66.80530453 235.74541759 C55.64205225 224.67076328 44.49010094 213.58486998 33.35037136 202.48655987 C27.96286348 197.11961799 22.57169489 191.75645514 17.17153931 186.40223694 C12.46106623 181.73181509 7.75782812 177.054244 3.06290013 172.36819392 C0.58006781 169.89054559 -1.90607886 167.41645676 -4.40094185 164.9509182 C-7.19584031 162.18860143 -9.97455434 159.41033321 -12.75228882 156.63075256 C-13.56868835 155.82873413 -14.38508789 155.0267157 -15.22622681 154.20039368 C-26.77916117 142.56462463 -34.52647388 128.4312265 -34.8789978 111.80384827 C-34.22802647 94.66798519 -26.83644189 80.17083552 -14.5586853 68.41712952 C-1.47261347 57.48728543 11.75266625 55.84647102 28.1913147 57.12025452 C38.24067823 58.93261274 46.80463399 64.52913404 55.1913147 70.12025452 C55.8513147 67.15025452 56.5113147 64.18025452 57.1913147 61.12025452 C58.1582897 64.98815454 58.17090969 66.20187453 57.2538147 69.87025452 C57.05916626 70.66947327 56.86451782 71.46869202 56.66397095 72.29212952 C56.50799438 72.89541077 56.35201782 73.49869202 56.1913147 74.12025452 C52.59291863 72.4386796 49.34372802 70.32556629 46.0038147 68.18275452 C33.95397446 60.62727963 20.68887765 58.22609464 6.5663147 60.74525452 C-6.81882907 64.25731976 -16.86741917 73.50633119 -23.8086853 85.12025452 C-31.05489261 98.88421443 -33.3275537 113.01938956 -28.8946228 128.22962952 C-22.15120681 146.17972965 -5.64971296 159.41302835 7.64614105 172.6196804 C10.35511998 175.31104972 13.06035162 178.00613594 15.76461792 180.70223999 C23.44323666 188.35657282 31.12772879 196.00498723 38.8163147 203.64930725 C43.54183777 208.34771285 48.26212841 213.05133716 52.9796524 217.75777626 C54.77521381 219.54711703 56.57267196 221.33455649 58.37203217 223.12007713 C60.87066414 225.59962525 63.3631975 228.08515038 65.85440063 230.57215881 C66.60230865 231.31130524 67.35021667 232.05045166 68.12078857 232.81199646 C68.79340729 233.48591934 69.466026 234.15984222 70.1590271 234.85418701 C70.74813747 235.44015498 71.33724785 236.02612295 71.94421005 236.62984753 C73.1913147 238.12025452 73.1913147 238.12025452 73.1913147 240.12025452 C72.2068335 240.12612076 71.22235229 240.131987 70.20803833 240.13803101 C60.9097688 240.19535609 51.61173095 240.26816862 42.31369781 240.35596943 C37.53398845 240.40061093 32.75436311 240.43988069 27.97451782 240.46669006 C23.35780098 240.49278519 18.74140852 240.53323128 14.12489319 240.58344078 C12.36757964 240.60006759 10.61021003 240.61160786 8.85282898 240.61786842 C6.38263301 240.62755533 3.91325913 240.65566807 1.44326782 240.68788147 C0.72397095 240.68644638 0.00467407 240.68501129 -0.73641968 240.68353271 C-8.21656329 240.82062243 -14.15660508 242.91407555 -19.62973022 248.12831116 C-20.47482147 248.92713715 -21.31991272 249.72596313 -22.19061279 250.54899597 C-23.05457672 251.39751129 -23.91854065 252.24602661 -24.8086853 253.12025452 C-25.6712796 253.96659454 -26.5338739 254.81293457 -27.42260742 255.68492126 C-29.70573703 257.95377396 -31.97417742 260.23586295 -34.23217201 262.52970695 C-35.71387316 264.03389074 -37.19989561 265.53368588 -38.68714905 267.03237915 C-42.9069964 271.28542197 -47.12218033 275.54301337 -51.32748413 279.81044006 C-53.9196365 282.44027223 -56.51908036 285.06270588 -59.123312 287.68057442 C-60.10725847 288.67254478 -61.08842708 289.66727896 -62.06667519 290.66486931 C-63.42984455 292.05457424 -64.80326617 293.43420008 -66.17709351 294.81336975 C-67.34097343 295.99176674 -67.34097343 295.99176674 -68.52836609 297.19396973 C-72.08386944 300.197458 -74.66300159 301.16117179 -79.3086853 300.99525452 C-83.22221575 300.0168719 -85.0456908 299.04113442 -87.8086853 296.12025452 C-89.86041866 291.32394235 -90.09673806 286.83931228 -90.07611084 281.69929504 C-90.08064195 280.86565689 -90.08517307 280.03201874 -90.08984149 279.17311883 C-90.1024751 276.38688593 -90.10086573 273.60084878 -90.09921265 270.81459045 C-90.10519896 268.81337737 -90.11200474 266.8121666 -90.11956787 264.81095886 C-90.13723484 259.37638224 -90.14192384 253.94186861 -90.14319944 248.50726604 C-90.14462238 245.10563442 -90.14889493 241.70401872 -90.15419388 238.30239105 C-90.17270371 226.41614774 -90.1808642 214.52994926 -90.17929077 202.64369202 C-90.17809244 191.59779097 -90.19913166 180.5520863 -90.2307781 169.50623488 C-90.25703108 160.00101872 -90.26765414 150.49586627 -90.26637995 140.99061418 C-90.26587252 135.32379397 -90.27143254 129.65714789 -90.29273605 123.99036407 C-90.31226815 118.64851112 -90.31214164 113.30699553 -90.29770279 107.96512985 C-90.2956313 106.01826096 -90.30021485 104.07137013 -90.31242371 102.12453842 C-90.47723115 73.99199314 -82.35465234 49.04725872 -62.3946228 28.66712952 C-46.11746211 12.63584739 -23.4259896 -0.0219756 0 0 Z " fill="#162C58" transform="translate(99.80868530273438,24.879745483398438)"/>
<path d="M0 0 C10.48461789 1.05638467 19.78617257 6.53095222 26.9296875 14.21484375 C38.21003979 29.39011013 40.36770433 45.50625878 39 64 C36.71454301 77.78116882 28.60445723 88.02755235 18.85180664 97.5546875 C17.96320953 98.43904984 17.07461243 99.32341217 16.15908813 100.23457336 C14.24607416 102.13579372 12.32993287 104.03299951 10.40706062 105.92416382 C7.36709739 108.91433564 4.34234841 111.91960063 1.31944275 114.92700195 C-4.54302097 120.75538751 -10.42024428 126.56875434 -16.29933167 132.38036346 C-23.80946429 139.80553762 -31.31333194 147.23698168 -38.80269343 154.68310928 C-41.81048236 157.67252404 -44.82578263 160.65408709 -47.84717071 163.62975407 C-50.15640403 165.90751193 -52.45617271 168.19479623 -54.75756836 170.48046875 C-55.59748825 171.30331863 -56.43740814 172.12616852 -57.30278015 172.97395325 C-58.05835205 173.7278685 -58.81392395 174.48178375 -59.59239197 175.25854492 C-60.25436553 175.91255783 -60.91633909 176.56657074 -61.59837246 177.24040222 C-63.31152682 179.0161546 -63.31152682 179.0161546 -63 182 C-61.47015442 183.6333031 -61.47015442 183.6333031 -59.4375 185.1875 C-55.13903313 188.80331332 -51.61530477 192.71620491 -48 197 C-46.97807517 198.17319435 -45.95449529 199.34494814 -44.9296875 200.515625 C-43.82796158 201.78110775 -42.72640008 203.04673365 -41.625 204.3125 C-41.08842773 204.92359619 -40.55185547 205.53469238 -39.99902344 206.16430664 C-37.76060521 208.75413787 -36.0934644 210.71960681 -35 214 C-34.34 214 -33.68 214 -33 214 C-31.54597658 215.6376272 -30.16151322 217.33734196 -28.8125 219.0625 C-22.10735468 227.97643434 -22.10735468 227.97643434 -13 234 C-10.27333012 234.18055763 -7.65175605 234.25277412 -4.92675781 234.22705078 C-4.11662735 234.22734283 -3.30649689 234.22763489 -2.47181702 234.22793579 C0.20118994 234.22654443 2.87391684 234.21099238 5.546875 234.1953125 C7.40203703 234.19158168 9.25720102 234.18873503 11.11236572 234.18673706 C15.99173435 234.17910604 20.87098365 234.15946207 25.75030518 234.1373291 C30.73065578 234.11685927 35.71102569 234.10773291 40.69140625 234.09765625 C50.46098989 234.07621571 60.23048502 234.04208612 70 234 C69.19828369 233.07058594 68.39656738 232.14117187 67.57055664 231.18359375 C66.4961876 229.93495512 65.42189137 228.68625385 64.34765625 227.4375 C63.55905212 226.52387695 63.55905212 226.52387695 62.7545166 225.59179688 C57.76447202 219.78575809 53.03871547 213.79136692 48.35009766 207.74121094 C46.11757665 204.86194515 43.87297402 201.99221042 41.625 199.125 C41.17487549 198.55048096 40.72475098 197.97596191 40.26098633 197.3840332 C36.76833116 192.94146443 33.20375672 188.56082306 29.625 184.1875 C23.34669631 176.51025204 17.30226657 168.66389572 11.34326172 160.73681641 C10.1393211 159.18014001 8.85715002 157.68471359 7.56640625 156.19921875 C7.04949219 155.47347656 6.53257812 154.74773437 6 154 C6.33 153.01 6.66 152.02 7 151 C9.81640625 149.89453125 9.81640625 149.89453125 13.5625 148.8125 C22.21747246 146.14806249 30.05296896 142.30260354 38 138 C39.37285156 137.25943359 39.37285156 137.25943359 40.7734375 136.50390625 C51.57530869 130.33390539 61.22309121 122.72700978 69 113 C69.66 113.33 70.32 113.66 71 114 C66.61575792 124.50748521 54.17381141 132.21163471 45 138 C43.94425781 138.67804688 42.88851562 139.35609375 41.80078125 140.0546875 C31.77127464 146.15547613 21.02342606 150.07410764 10 154 C10.73863281 154.92039063 11.47726563 155.84078125 12.23828125 156.7890625 C17.35424075 163.1704056 22.45667223 169.56104018 27.5 176 C31.80487609 181.49588404 36.15448272 186.95427213 40.52392578 192.39892578 C43.83858288 196.53396852 47.11491364 200.69687428 50.375 204.875 C55.15636611 210.99774882 60.08008537 216.99737112 65.05419922 222.96435547 C68.85226298 227.53766913 72.47696853 232.21161505 76 237 C73.97566094 239.02433906 69.80604599 238.16763052 67.02709961 238.17700195 C65.77331512 238.18685875 65.77331512 238.18685875 64.49420166 238.19691467 C61.71358153 238.21670658 58.9330157 238.22832665 56.15234375 238.23828125 C54.72894778 238.24439454 54.72894778 238.24439454 53.27679634 238.25063133 C48.24906759 238.27152261 43.22136634 238.28580796 38.19360352 238.29516602 C33.00734523 238.30620406 27.82151914 238.340565 22.63541317 238.38033772 C18.64357222 238.40653714 14.65183338 238.41486108 10.65991402 238.41844749 C8.74902 238.42330914 6.83813041 238.43491107 4.92732048 238.45348549 C2.24409185 238.47793539 -0.43803106 238.47690073 -3.12133789 238.4699707 C-4.29610939 238.48918579 -4.29610939 238.48918579 -5.49461365 238.50878906 C-12.53727335 238.44284512 -18.06018411 236.11419481 -23.08984375 231.15234375 C-24.05203624 230.09236277 -25.00101269 229.02025832 -25.9375 227.9375 C-26.70598267 227.07813843 -26.70598267 227.07813843 -27.48999023 226.20141602 C-31.36710869 221.83065913 -35.05647336 217.31251683 -38.71484375 212.7578125 C-42.13704919 208.62776628 -45.7848983 204.71808125 -49.4296875 200.78515625 C-52.12945476 197.85972455 -54.76988258 194.8942633 -57.359375 191.87109375 C-58.54398906 190.52006962 -59.76825131 189.20346037 -61.015625 187.91015625 C-61.67046875 187.21792969 -62.3253125 186.52570313 -63 185.8125 C-63.598125 185.20019531 -64.19625 184.58789062 -64.8125 183.95703125 C-66 182 -66 182 -65.93359375 179.75927734 C-64.63344609 175.91663381 -62.11253653 173.63559208 -59.25 170.89453125 C-58.67668945 170.32925217 -58.10337891 169.76397308 -57.51269531 169.18156433 C-55.68435882 167.38216883 -53.84289923 165.59696702 -52 163.8125 C-50.15978119 162.01478102 -48.32239572 160.21425325 -46.48730469 158.41130066 C-45.34567808 157.29138236 -44.20058843 156.17498131 -43.05175781 155.06245422 C-40.15898515 152.31392033 -40.15898515 152.31392033 -38 149 C-37.34 149 -36.68 149 -36 149 C-36 148.34 -36 147.68 -36 147 C-34.3777546 145.29006566 -32.70586575 143.62652316 -31 142 C-30.443125 141.401875 -29.88625 140.80375 -29.3125 140.1875 C-28 139 -28 139 -26 139 C-25.773125 138.443125 -25.54625 137.88625 -25.3125 137.3125 C-23.04399551 133.31561114 -20.38100054 130.46033351 -16 129 C-15.71125 128.4225 -15.4225 127.845 -15.125 127.25 C-13.59906937 124.19813874 -11.46736935 122.35770849 -9 120 C-7.89484219 118.87597364 -6.79073972 117.75090903 -5.6875 116.625 C-3.15638709 114.0828342 -0.5388458 111.70607634 2.1875 109.375 C5.17921227 106.79752481 7.59837818 104.14695273 10 101 C12.65232671 98.20430428 15.38940383 95.67454454 18.375 93.25 C30.33415297 83.08862819 34.63779779 70.55435011 36.2890625 55.3359375 C36.81315925 41.09003486 32.53629003 26.23569115 23.34375 15.328125 C17.62004439 9.64257743 10.49999978 5.83333325 3 3 C3 2.34 3 1.68 3 1 C2.01 0.67 1.02 0.34 0 0 Z " fill="#24A6E6" transform="translate(239,84)"/>
<path d="M0 0 C0.99 0.66 1.98 1.32 3 2 C3.66 -0.97 4.32 -3.94 5 -7 C5.96697501 -3.13209997 5.979595 -1.91837998 5.0625 1.75 C4.77052734 2.94882813 4.77052734 2.94882813 4.47265625 4.171875 C4.23869141 5.07679687 4.23869141 5.07679687 4 6 C0.40160393 4.31842508 -2.84758667 2.20531177 -6.1875 0.0625 C-18.23734024 -7.49297489 -31.50243704 -9.89415988 -45.625 -7.375 C-59.01014377 -3.86293475 -69.05873387 5.38607667 -76 17 C-83.24620731 30.76395992 -85.5188684 44.89913505 -81.0859375 60.109375 C-74.3425215 78.05947513 -57.84102766 91.29277383 -44.54517365 104.49942589 C-41.83619472 107.19079521 -39.13096307 109.88588143 -36.42669678 112.58198547 C-28.74807804 120.2363183 -21.06358591 127.88473271 -13.375 135.52905273 C-8.64947693 140.22745833 -3.92918629 144.93108265 0.78833771 149.63752174 C2.58389911 151.42686251 4.38135726 153.21430197 6.18071747 154.99982262 C8.67934944 157.47937074 11.1718828 159.96489586 13.66308594 162.4519043 C14.41099396 163.19105072 15.15890198 163.93019714 15.92947388 164.69174194 C16.60209259 165.36566483 17.2747113 166.03958771 17.9677124 166.7339325 C18.55682278 167.31990047 19.14593315 167.90586843 19.75289536 168.50959301 C21 170 21 170 21 172 C20.0155188 172.00586624 19.0310376 172.01173248 18.01672363 172.01777649 C8.7184541 172.07510157 -0.57958375 172.14791411 -9.87761688 172.23571491 C-14.65732624 172.28035642 -19.43695159 172.31962617 -24.21679688 172.34643555 C-28.83351372 172.37253067 -33.44990617 172.41297677 -38.06642151 172.46318626 C-39.82373506 172.47981307 -41.58110466 172.49135334 -43.33848572 172.49761391 C-45.80868168 172.50730081 -48.27805557 172.53541355 -50.74804688 172.56762695 C-51.46734375 172.56619186 -52.18664062 172.56475677 -52.92773438 172.5632782 C-60.40787799 172.70036792 -66.34791978 174.79382103 -71.82104492 180.00805664 C-72.66613617 180.80688263 -73.51122742 181.60570862 -74.38192749 182.42874146 C-75.24589142 183.27725677 -76.10985535 184.12577209 -77 185 C-77.8625943 185.84634003 -78.7251886 186.69268005 -79.61392212 187.56466675 C-81.89705173 189.83351945 -84.16549211 192.11560844 -86.42348671 194.40945244 C-87.90518785 195.91363622 -89.3912103 197.41343137 -90.87846375 198.91212463 C-95.09831109 203.16516745 -99.31349503 207.42275885 -103.51879883 211.69018555 C-106.11095119 214.32001771 -108.71039506 216.94245136 -111.31462669 219.5603199 C-112.29857317 220.55229026 -113.27974177 221.54702444 -114.25798988 222.54461479 C-115.62115925 223.93431973 -116.99458087 225.31394557 -118.3684082 226.69311523 C-119.14432816 227.47871323 -119.92024811 228.26431122 -120.71968079 229.07371521 C-124.36003311 232.1488791 -126.8692736 233.07798113 -131.625 232.75 C-135 232 -135 232 -138 230 C-137.67 229.01 -137.34 228.02 -137 227 C-136.01 227.66 -135.02 228.32 -134 229 C-128.8400062 229.80599433 -128.8400062 229.80599433 -124.22450256 227.81097412 C-118.74915661 222.79608669 -113.49572538 217.57306978 -108.29351616 212.27698517 C-106.71092798 210.66735842 -105.12366451 209.06248013 -103.53492737 207.45892334 C-99.02382977 202.90545208 -94.51572664 198.34913279 -90.02368164 193.77685547 C-87.26100966 190.96552329 -84.48854803 188.16417223 -81.70955086 185.36898041 C-80.65936708 184.30894685 -79.61283683 183.24527987 -78.57018852 182.17783356 C-77.11126394 180.68495138 -75.64014416 179.20514515 -74.16577148 177.72753906 C-72.91956276 176.46348236 -72.91956276 176.46348236 -71.6481781 175.17388916 C-66.20812144 170.70814714 -60.93064996 169.55359484 -54.04516602 169.56762695 C-52.90246498 169.55233948 -52.90246498 169.55233948 -51.73667908 169.53674316 C-49.24234507 169.50677671 -46.7483961 169.49737259 -44.25390625 169.48828125 C-42.51511882 169.47142239 -40.77634348 169.45327052 -39.0375824 169.43388367 C-34.47893047 169.38650853 -29.92032761 169.35661859 -25.36151123 169.33044434 C-20.70249749 169.30057561 -16.04365259 169.25406703 -11.38476562 169.20898438 C-2.25659897 169.12309344 6.87160257 169.05568515 16 169 C15.54261664 168.54630382 15.08523329 168.09260763 14.61398983 167.62516308 C3.45073755 156.55050877 -7.70121376 145.46461546 -18.84094334 134.36630535 C-24.22845121 128.99936348 -29.61961981 123.63620062 -35.01977539 118.28198242 C-39.73024847 113.61156057 -44.43348658 108.93398948 -49.12841457 104.24793941 C-51.61124688 101.77029107 -54.09739355 99.29620224 -56.59225655 96.83066368 C-59.38715501 94.06834692 -62.16586904 91.29007869 -64.94360352 88.51049805 C-65.76000305 87.70847961 -66.57640259 86.90646118 -67.4175415 86.08013916 C-78.97047587 74.44437011 -86.71778858 60.31097198 -87.0703125 43.68359375 C-86.41934117 26.54773067 -79.02775659 12.050581 -66.75 0.296875 C-46.12143904 -16.93266171 -21.39234382 -13.59200562 0 0 Z " fill="#0E2557" transform="translate(152,93)"/>
<path d="M0 0 C3.81732597 3.16756836 5.82636293 5.22890188 6.3125 10.1875 C5.68922139 17.79149898 0.81046659 22.62715012 -4.38916016 27.74560547 C-5.02051376 28.37900345 -5.65186737 29.01240143 -6.30235291 29.66499329 C-8.37408479 31.73971366 -10.45630554 33.80354001 -12.5390625 35.8671875 C-13.98645383 37.31151881 -15.43325302 38.75644372 -16.87948608 40.20193481 C-19.90274525 43.22060368 -22.93083325 46.23430949 -25.96289062 49.24414062 C-29.85489546 53.10776275 -33.73807661 56.98010348 -37.61814308 60.85571098 C-40.60125224 63.83467158 -43.58718202 66.81079022 -46.57416916 69.78586197 C-48.00760903 71.2135959 -49.44057577 72.641805 -50.87306595 74.07049179 C-52.8693142 76.05989155 -54.86890765 78.04586176 -56.86962891 80.03076172 C-57.46395218 80.62396713 -58.05827545 81.21717255 -58.67060852 81.82835388 C-62.18132304 85.30221034 -64.1871344 87.15589787 -69.125 87.5 C-73.03521817 87.40528848 -74.83565409 86.73019648 -77.68603516 84.06591797 C-78.3762677 83.42748962 -79.06650024 82.78906128 -79.77764893 82.13128662 C-80.87771271 81.07629974 -80.87771271 81.07629974 -82 80 C-82.76318542 79.27653381 -83.52637085 78.55306763 -84.31268311 77.80767822 C-89.74741427 72.60713533 -95.09144321 67.3129142 -100.43798828 62.02197266 C-102.39764097 60.08470013 -104.36662045 58.15769614 -106.34423828 56.23876953 C-109.21556899 53.45240306 -112.05753925 50.63770498 -114.8984375 47.8203125 C-115.78171722 46.97002472 -116.66499695 46.11973694 -117.57504272 45.24368286 C-122.52819868 40.27412188 -125.78506747 36.22236009 -126 29 C-125.10541525 24.97436862 -123.34996546 22.40510341 -120 20 C-116.94358214 19.09180726 -114.16967466 18.58968613 -111 19 C-105.44773454 22.19476409 -101.23337471 26.5084236 -96.7578125 31.046875 C-95.98944061 31.81807678 -95.22106873 32.58927856 -94.42941284 33.3838501 C-91.98985106 35.83455682 -89.55735761 38.29214497 -87.125 40.75 C-85.46660843 42.41842869 -83.80775914 44.08640255 -82.1484375 45.75390625 C-78.09364317 49.8306855 -74.04462098 53.91312879 -70 58 C-63.85550669 52.96768396 -58.30027624 47.40426392 -52.7213974 41.76599693 C-51.01735357 40.04439311 -49.30964397 38.3265027 -47.60089111 36.60957336 C-42.74815782 31.73251963 -37.90125878 26.84969701 -33.05859375 21.96264648 C-30.08513302 18.96244367 -27.10685127 15.96709777 -24.12552643 12.97471046 C-22.99290955 11.835884 -21.86219395 10.69516336 -20.73342133 9.55252647 C-19.16110143 7.96104258 -17.58276521 6.37576642 -16.00292969 4.79174805 C-14.65893097 3.43656319 -14.65893097 3.43656319 -13.28778076 2.05400085 C-9.2233913 -1.59506359 -5.06721632 -1.47176458 0 0 Z M-15.0625 6.5 C-17.46663849 8.86707551 -17.46663849 8.86707551 -18 12 C-18.86625 12.3403125 -18.86625 12.3403125 -19.75 12.6875 C-22.57408471 14.33488275 -23.9976963 16.43454838 -26 19 C-27.33333333 20 -28.66666667 21 -30 22 C-30 22.66 -30 23.32 -30 24 C-31.32 24.66 -32.64 25.32 -34 26 C-34 26.66 -34 27.32 -34 28 C-35.485 28.495 -35.485 28.495 -37 29 C-38.4704568 30.4385716 -38.4704568 30.4385716 -39.92578125 32.28125 C-44.55068479 37.72660292 -49.5318597 42.78967318 -54.56225586 47.85742188 C-55.65557892 48.96240573 -56.74438382 50.07187653 -57.82885742 51.18554688 C-59.41145878 52.81057532 -61.00668099 54.42216335 -62.60546875 56.03125 C-63.08783493 56.53112427 -63.57020111 57.03099854 -64.06718445 57.54602051 C-67.01790971 60.47788102 -67.62755918 61 -72 61 C-72 60.34 -72 59.68 -72 59 C-73.61974559 57.28769752 -75.2958946 55.62836738 -77 54 C-77.845625 53.113125 -78.69125 52.22625 -79.5625 51.3125 C-81.79032808 48.96569874 -81.79032808 48.96569874 -84.1875 47.9375 C-86 47 -86 47 -86.875 45.1875 C-88.18754314 42.63533278 -89.75127947 41.05277986 -91.8125 39.0625 C-92.52664062 38.36769531 -93.24078125 37.67289063 -93.9765625 36.95703125 C-94.64429688 36.31121094 -95.31203125 35.66539062 -96 35 C-96.886875 34.0925 -97.77375 33.185 -98.6875 32.25 C-101.0125988 29.98774171 -103.46218893 28.01723444 -106 26 C-106.5775 25.2575 -107.155 24.515 -107.75 23.75 C-110.794097 21.382369 -113.08578424 21.36760466 -116.87109375 21.5546875 C-119.25423404 21.88495884 -119.25423404 21.88495884 -121.5625 24.0625 C-123.35257383 27.72047696 -123.50400717 29.96794262 -123 34 C-121.05098308 37.7704043 -118.67132646 40.5812318 -115.68383789 43.57495117 C-114.81606216 44.44903122 -113.94828644 45.32311127 -113.05421448 46.22367859 C-112.11980026 47.15404434 -111.18538605 48.0844101 -110.22265625 49.04296875 C-109.24974328 50.01723034 -108.27712724 50.99178854 -107.30479431 51.96662903 C-105.27129033 54.00307361 -103.23423329 56.03587703 -101.19458008 58.06616211 C-98.58403977 60.66529334 -95.98260189 63.27332122 -93.38375187 65.88413525 C-91.37905375 67.89606776 -89.36960738 69.90320339 -87.35870171 71.90892982 C-86.39759051 72.86870969 -85.43795497 73.82996966 -84.47984505 74.79274559 C-83.13992927 76.13775401 -81.79288871 77.47565318 -80.44555664 78.81323242 C-79.68183243 79.57536545 -78.91810822 80.33749847 -78.13124084 81.12272644 C-74.80618402 84.05155603 -73.19545842 84.99477003 -68.68307495 85.01451111 C-63.82348209 83.67592555 -61.51493976 81.32681503 -58.07080078 77.76782227 C-57.41789566 77.1173996 -56.76499054 76.46697693 -56.09230042 75.79684448 C-53.94530614 73.65076595 -51.82042882 71.48413328 -49.6953125 69.31640625 C-48.2067978 67.81923476 -46.71702279 66.32331533 -45.2260437 64.82859802 C-41.31010189 60.89544226 -37.41293635 56.94416594 -33.51898193 52.98925781 C-30.33047777 49.75710001 -27.12892603 46.5380437 -23.92659187 43.31959629 C-20.11603251 39.48946095 -16.31100313 35.65385729 -12.5078125 31.81640625 C-11.77920139 31.08136934 -11.05059029 30.34633244 -10.29990005 29.58902168 C-8.24790646 27.51611173 -6.1996638 25.43957781 -4.15283203 23.36157227 C-3.54092514 22.74383438 -2.92901825 22.1260965 -2.29856873 21.48963928 C1.91190395 17.20295705 3.34163465 15.2414467 3.296875 9.109375 C2.8067713 5.62705921 1.21621948 3.68632665 -1 1 C-6.62492074 1 -11.06327553 2.56620251 -15.0625 6.5 Z " fill="#29A17A" transform="translate(233,120)"/>
<path d="M0 0 C5.31454758 0.54314264 9.80017869 1.87146668 14.6875 4.0625 C15.38520508 4.37413086 16.08291016 4.68576172 16.80175781 5.00683594 C39.68631837 15.54232992 56.70332601 34.73400648 66 58 C70.49435142 70.54548185 72.20461071 82.48887617 72.24023438 95.80322266 C72.24985275 97.96687588 72.28089549 100.12954111 72.3125 102.29296875 C72.45450576 120.97372599 67.50908341 137.51858532 59.0625 154.125 C58.65572021 154.94323242 58.24894043 155.76146484 57.82983398 156.60449219 C55.2096137 161.58223582 52.97539793 164.32038248 48 167 C49.51204813 163.81504756 51.28334419 160.80883596 53.07177734 157.77294922 C68.24111675 131.72795412 73.51580869 100.36030694 66.47753906 70.80615234 C61.61147048 52.5444122 52.58925172 37.06078082 39 24 C38.278125 23.29359375 37.55625 22.5871875 36.8125 21.859375 C32.02698335 17.42119423 26.69950516 14.14392059 21 11 C20.36578125 10.64164063 19.7315625 10.28328125 19.078125 9.9140625 C12.71184766 6.51327332 5.80940981 4.33356179 -1 2 C-0.67 1.34 -0.34 0.68 0 0 Z " fill="#24A5E6" transform="translate(262,29)"/>
<path d="M0 0 C0.33 0 0.66 0 1 0 C2.00548504 3.44947421 2.35690217 6.41522577 2 10 C0.50730896 12.24998474 0.50730896 12.24998474 -1.64672852 14.48608398 C-2.88629807 15.78737747 -2.88629807 15.78737747 -4.15090942 17.11495972 C-5.09937933 18.07784993 -6.04913523 19.03947467 -7 20 C-8.02708392 21.05161444 -9.05400461 22.10338831 -10.08078003 23.15530396 C-13.60127972 26.7437128 -17.15699615 30.29633781 -20.71484375 33.84765625 C-22.02012964 35.1536172 -23.32526718 36.45972643 -24.63026428 37.76597595 C-27.34409464 40.48126962 -30.05969801 43.19477367 -32.77661133 45.90698242 C-36.26258486 49.38721367 -39.74398777 52.87197737 -43.22411251 56.35805607 C-45.90823783 59.04578531 -48.5947282 61.73114035 -51.28195381 64.41576958 C-52.56773878 65.70088716 -53.85278048 66.98674884 -55.13706779 68.27336311 C-56.92222738 70.06105132 -58.71054144 71.84552175 -60.49975586 73.62915039 C-61.03011948 74.16153824 -61.56048309 74.69392609 -62.10691833 75.2424469 C-65.45304206 78.56916316 -67.4097446 80.17141077 -72.125 80.5 C-76.03731452 80.40549965 -77.83986173 79.72748543 -80.69311523 77.06323242 C-81.383237 76.424935 -82.07335876 75.78663757 -82.78439331 75.1289978 C-83.51554352 74.42642853 -84.24669373 73.72385925 -85 73 C-85.75717316 72.27801422 -86.51434631 71.55602844 -87.29446411 70.81216431 C-92.64322574 65.65614716 -97.9059554 60.41131334 -103.17553711 55.17456055 C-105.10946829 53.25409022 -107.05046802 51.34120268 -108.99780273 49.43432617 C-111.81594532 46.67468247 -114.61374694 43.89495443 -117.41015625 41.11328125 C-118.28704605 40.25906082 -119.16393585 39.40484039 -120.06739807 38.5247345 C-121.26005531 37.3278022 -121.26005531 37.3278022 -122.47680664 36.10668945 C-123.18325821 35.40832474 -123.88970978 34.70996002 -124.61756897 33.99043274 C-126 32 -126 32 -125.72019958 29.74333191 C-125.48253372 29.16803238 -125.24486786 28.59273285 -125 28 C-124.59996262 28.47027618 -124.19992523 28.94055237 -123.7877655 29.42507935 C-119.0502764 34.92430249 -114.05342702 40.10744804 -108.92578125 45.2421875 C-108.07952682 46.09177032 -107.2332724 46.94135315 -106.3613739 47.81668091 C-104.58524278 49.5978438 -102.8077823 51.377682 -101.02905273 53.15625 C-98.30489597 55.88261018 -95.58885697 58.61689091 -92.87304688 61.3515625 C-91.14111443 63.08642624 -89.40870914 64.82081809 -87.67578125 66.5546875 C-86.86530838 67.37234589 -86.05483551 68.19000427 -85.21980286 69.03244019 C-84.4618895 69.78727692 -83.70397614 70.54211365 -82.9230957 71.31982422 C-82.26026077 71.98408417 -81.59742584 72.64834412 -80.914505 73.33273315 C-77.69588347 76.13570361 -76.03439429 76.99973881 -71.67634583 77.00083923 C-66.8893013 75.69762615 -64.59905222 73.45945807 -61.1784668 69.98657227 C-60.53692154 69.35875351 -59.89537628 68.73093475 -59.23439026 68.08409119 C-57.12375846 66.00997868 -55.03596516 63.91452891 -52.94921875 61.81640625 C-51.4850077 60.36132118 -50.02005586 58.9069812 -48.55439758 57.45335388 C-45.48728351 54.40409976 -42.43178016 51.34375718 -39.38354492 48.27563477 C-35.48532804 44.3544651 -31.55636262 40.46585395 -27.61757183 36.58549595 C-24.58445013 33.58916065 -21.57026712 30.57431763 -18.56119728 27.55384636 C-17.12051342 26.11285669 -15.67364267 24.67802412 -14.22043419 23.24966621 C-12.18530806 21.24446963 -10.17756941 19.21519252 -8.17456055 17.17797852 C-7.57559967 16.59835358 -6.97663879 16.01872864 -6.35952759 15.42153931 C-1.86440281 10.76507035 -0.72502869 6.36513478 0 0 Z " fill="#229C74" transform="translate(236,127)"/>
<path d="M0 0 C0.81056854 -0.00043808 1.62113708 -0.00087616 2.45626831 -0.00132751 C5.11310625 0.00074852 7.76929884 0.0240229 10.42602539 0.04760742 C12.27689774 0.0532076 14.12777456 0.05747571 15.97865295 0.06047058 C20.83338857 0.07188611 25.6878519 0.1013248 30.54248047 0.13458252 C35.50297361 0.16535456 40.46351104 0.17899113 45.42407227 0.1940918 C55.14489455 0.22619778 64.86551539 0.27735411 74.58618164 0.34057617 C74.58618164 1.00057617 74.58618164 1.66057617 74.58618164 2.34057617 C73.10945984 2.34937553 73.10945984 2.34937553 71.60290527 2.35835266 C62.30463574 2.41567774 53.00659789 2.48849028 43.70856476 2.57629108 C38.9288554 2.62093259 34.14923005 2.66020235 29.36938477 2.68701172 C24.75266792 2.71310685 20.13627547 2.75355294 15.51976013 2.80376244 C13.76244658 2.82038924 12.00507698 2.83192951 10.24769592 2.83819008 C7.77749996 2.84787698 5.30812607 2.87598972 2.83813477 2.90820312 C1.75918945 2.90605049 1.75918945 2.90605049 0.65844727 2.90385437 C-6.82169635 3.04094409 -12.76173814 5.1343972 -18.23486328 10.34863281 C-19.07995453 11.1474588 -19.92504578 11.94628479 -20.79574585 12.76931763 C-21.65970978 13.61783295 -22.52367371 14.46634827 -23.41381836 15.34057617 C-24.27641266 16.1869162 -25.13900696 17.03325623 -26.02774048 17.90524292 C-28.31087009 20.17409562 -30.57931047 22.45618461 -32.83730507 24.75002861 C-34.31900621 26.2542124 -35.80502866 27.75400754 -37.2922821 29.25270081 C-41.51212945 33.50574362 -45.72731339 37.76333503 -49.93261719 42.03076172 C-52.52476955 44.66059388 -55.12421342 47.28302753 -57.72844505 49.90089607 C-58.71239153 50.89286644 -59.69356013 51.88760061 -60.67180824 52.88519096 C-62.03497761 54.2748959 -63.40839923 55.65452174 -64.78222656 57.03369141 C-65.55814651 57.8192894 -66.33406647 58.60488739 -67.13349915 59.41429138 C-70.77385147 62.48945528 -73.28309196 63.4185573 -78.03881836 63.09057617 C-81.41381836 62.34057617 -81.41381836 62.34057617 -84.41381836 60.34057617 C-84.08381836 59.35057617 -83.75381836 58.36057617 -83.41381836 57.34057617 C-82.42381836 58.00057617 -81.43381836 58.66057617 -80.41381836 59.34057617 C-75.25382456 60.1465705 -75.25382456 60.1465705 -70.63832092 58.15155029 C-65.16297497 53.13666287 -59.90954374 47.91364595 -54.70733452 42.61756134 C-53.12474634 41.0079346 -51.53748287 39.4030563 -49.94874573 37.79949951 C-45.43764812 33.24602825 -40.929545 28.68970896 -36.4375 24.11743164 C-33.67482802 21.30609947 -30.90236639 18.5047484 -28.12336922 15.70955658 C-27.07318544 14.64952302 -26.02665519 13.58585604 -24.98400688 12.51840973 C-23.5250823 11.02552755 -22.05396252 9.54572133 -20.57958984 8.06811523 C-19.74878403 7.22541077 -18.91797821 6.3827063 -18.06199646 5.51446533 C-12.36383648 0.83684633 -7.08435172 -0.10175267 0 0 Z " fill="#09214E" transform="translate(98.413818359375,262.659423828125)"/>
<path d="M0 0 C1.32 0.66 2.64 1.32 4 2 C3.67 2.66 3.34 3.32 3 4 C-8.29157483 4.02314654 -19.58314404 4.04092692 -30.87473774 4.05181217 C-36.11759083 4.05703592 -41.36042772 4.0641244 -46.60327148 4.07543945 C-51.66069384 4.08628631 -56.71810059 4.09228067 -61.77553368 4.09487724 C-63.7072798 4.09672824 -65.63902504 4.10034264 -67.57076454 4.10573006 C-70.27156054 4.1129643 -72.97229161 4.11398993 -75.6730957 4.11352539 C-76.87718834 4.1189183 -76.87718834 4.1189183 -78.10560608 4.12442017 C-81.3359513 4.11838796 -83.91264897 4.02911701 -87 3 C-87 2.34 -87 1.68 -87 1 C-58.29 1 -29.58 1 0 1 C0 0.67 0 0.34 0 0 Z " fill="#35AEEB" transform="translate(311,318)"/>
<path d="M0 0 C-0.75925781 0.25394531 -1.51851562 0.50789063 -2.30078125 0.76953125 C-3.79158203 1.28580078 -3.79158203 1.28580078 -5.3125 1.8125 C-6.29863281 2.14894531 -7.28476563 2.48539062 -8.30078125 2.83203125 C-10.94902986 3.9779449 -12.09201274 4.92098868 -14 7 C-15.31831021 7.85690164 -16.65348833 8.68813267 -18 9.5 C-26.97444989 15.3757799 -34.14249015 23.8318398 -41 32 C-43.46800047 30.84826645 -45.04783565 29.95216435 -47 28 C-46.505 26.515 -46.505 26.515 -46 25 C-45.01 25.99 -44.02 26.98 -43 28 C-39.08480837 26.47448614 -37.27523049 24.10529156 -34.75 20.8125 C-28.03848672 12.4422062 -12.04083915 -4.63109198 0 0 Z " fill="#25A6E4" transform="translate(215,85)"/>
<path d="M0 0 C6.74957567 -0.15167586 13.13915832 0.3898651 19.8125 1.375 C20.73998047 1.50132813 21.66746094 1.62765625 22.62304688 1.7578125 C23.96399414 1.95117188 23.96399414 1.95117188 25.33203125 2.1484375 C26.13358643 2.26364746 26.9351416 2.37885742 27.76098633 2.49755859 C30.09062289 3.02033605 31.91844843 3.846326 34 5 C31.97895295 4.85715908 29.95817023 4.71057617 27.9375 4.5625 C26.81214844 4.48128906 25.68679687 4.40007813 24.52734375 4.31640625 C22.22884502 4.11022862 19.93539117 3.83085654 17.65625 3.46875 C13.26188259 2.90536956 8.98575925 2.89116449 4.5625 2.9375 C3.32209961 2.94426758 3.32209961 2.94426758 2.05664062 2.95117188 C0.03772854 2.96284189 -1.98114574 2.98077282 -4 3 C-2.68 2.67 -1.36 2.34 0 2 C0 1.34 0 0.68 0 0 Z " fill="#2BA7E5" transform="translate(228,24)"/>
<path d="M0 0 C0.55308674 2.13333457 1.01572505 4.14742236 1.25 6.34375 C2.23475863 9.83143683 3.9444018 11.34190029 6.5625 13.8125 C7.38878906 14.60269531 8.21507812 15.39289063 9.06640625 16.20703125 C9.70449219 16.79871094 10.34257812 17.39039062 11 18 C10.01 18.33 9.02 18.66 8 19 C-0.78873239 11.30985915 -0.78873239 11.30985915 -1.625 6.125 C-1 3 -1 3 0 0 Z " fill="#229BD7" transform="translate(157,90)"/>
<path d="M0 0 C0.96697501 3.86790003 0.979595 5.08162002 0.0625 8.75 C-0.13214844 9.54921875 -0.32679688 10.3484375 -0.52734375 11.171875 C-0.76130859 12.07679687 -0.76130859 12.07679687 -1 13 C-3.8605891 11.64062915 -5.85927699 10.35479531 -8 8 C-5.03 8.495 -5.03 8.495 -2 9 C-1.34 6.03 -0.68 3.06 0 0 Z " fill="#0E3066" transform="translate(157,86)"/>
<path d="M0 0 C1 3 1 3 1 6 C3.43750025 8.68767578 3.43750025 8.68767578 6 11 C2.22199132 10.46028447 0.28423889 9.04565185 -2 6 C-1.7 1.7 -1.7 1.7 0 0 Z " fill="#209CDD" transform="translate(175,260)"/>
<path d="M0 0 C2.97 0 5.94 0 9 0 C9 0.33 9 0.66 9 1 C7.35 1.33 5.7 1.66 4 2 C4 2.33 4 2.66 4 3 C1.36 3 -1.28 3 -4 3 C-2.68 2.67 -1.36 2.34 0 2 C0 1.34 0 0.68 0 0 Z " fill="#2393CB" transform="translate(228,24)"/>
<path d="M0 0 C0 0.33 0 0.66 0 1 C-4.455 1.495 -4.455 1.495 -9 2 C-9 1.34 -9 0.68 -9 0 C-5.93109813 -1.53445094 -3.29905734 -0.54984289 0 0 Z " fill="#122556" transform="translate(95,27)"/>
<path d="" fill="#112B59" transform="translate(0,0)"/>
</svg>
